<?xml version="1.0" encoding="UTF-8" standalone="no"?>
<!-- Created with Inkscape (http://www.inkscape.org/) -->

<svg
   version="1.1"
   id="svg1"
   width="1480"
   height="1496"
   viewBox="0 0 1480 1496"
   sodipodi:docname="프로필편집.svg"
   inkscape:version="1.4 (86a8ad7, 2024-10-11)"
   xmlns:inkscape="http://www.inkscape.org/namespaces/inkscape"
   xmlns:sodipodi="http://sodipodi.sourceforge.net/DTD/sodipodi-0.dtd"
   xmlns="http://www.w3.org/2000/svg"
   xmlns:svg="http://www.w3.org/2000/svg">
  <defs
     id="defs1" />
  <sodipodi:namedview
     id="namedview1"
     pagecolor="#ffffff"
     bordercolor="#000000"
     borderopacity="0.25"
     inkscape:showpageshadow="2"
     inkscape:pageopacity="0.0"
     inkscape:pagecheckerboard="0"
     inkscape:deskcolor="#d1d1d1"
     inkscape:zoom="0.5394385"
     inkscape:cx="739.65799"
     inkscape:cy="748"
     inkscape:window-width="1920"
     inkscape:window-height="1009"
     inkscape:window-x="-8"
     inkscape:window-y="-8"
     inkscape:window-maximized="1"
     inkscape:current-layer="g1" />
  <g
     inkscape:groupmode="layer"
     inkscape:label="Image"
     id="g1">
    <path
       style="fill:#5983b5;fill-opacity:1"
       d="M 717.17431,1431.6855 715,1429.3711 v -1.1451 -1.1451 l -2.58249,-2.3946 -2.58248,-2.3946 3.23222,-10.1961 3.23223,-10.1961 -1.10736,-1.1074 -1.10736,-1.1073 -1.79238,1.2824 -1.79238,1.2824 2.85083,-2.6636 2.85083,-2.6635 1.39917,1.1612 1.39917,1.1612 v 2.7518 2.7518 l -1.5839,4.3758 -1.58391,4.3757 -0.75951,5.3295 -0.75951,5.3296 2.34341,1.5355 L 719,1427.23 v 2.278 2.278 l 1.58179,0.607 1.58178,0.607 h 3.26323 3.26322 l 1.52048,-1.75 1.52048,-1.75 3.12328,-9.4279 3.12327,-9.4279 -0.35217,-0.3522 -0.35216,-0.3521 -5.39275,7.28 -5.39275,7.2801 -2.74385,0.3164 L 721,1425.1328 V 1422.0664 1419 h -0.8 -0.8 l -1.19814,1.1981 -1.19814,1.1982 3.97759,-7.9482 3.97759,-7.9481 1.28689,-1.5 1.2869,-1.5 2.48366,-1.9928 2.48365,-1.9929 -2.13715,2.4929 -2.13715,2.4928 -2.11285,4.2102 -2.11285,4.2101 v 3.3487 3.3487 l 1.36888,1.8721 1.36888,1.872 4.73646,-6.4309 4.73647,-6.4309 1.95386,-3.8262 1.95385,-3.8262 -1.13238,-1.3644 -1.13238,-1.3645 -2.17682,-0.4345 -2.17682,-0.4344 4.4596,0.3847 4.4596,0.3847 0.73326,0.7404 0.73326,0.7404 -3.25487,11 -3.25487,11 -1.81484,3.7772 -1.81484,3.7772 -2.50801,1.9728 -2.50801,1.9728 h -4.69082 -4.69083 z M 525.5,1424.8453 l -2,-1.0939 -1.25,-1.5669 -1.25,-1.5668 v -5.2931 -5.293 l 3.09194,-3.2658 3.09194,-3.2658 -0.56056,1.75 -0.56055,1.75 h 2.7943 2.7943 l 2.17432,-2.3145 L 536,1402.3711 V 1401.1855 1400 l -1.25,-0.1185 -1.25,-0.1185 -1.5,0.1602 -1.5,0.1602 1.5,-1.0264 1.5,-1.0264 2.05,-0.015 2.05,-0.015 1.13476,1.1348 1.13475,1.1347 -1.58325,2.4164 -1.58326,2.4163 -2.80184,1.4489 -2.80184,1.4489 h -2.94267 -2.94267 l -0.60699,1.5818 -0.60699,1.5818 v 3.6957 3.6957 l 1.5567,2.2225 1.55671,2.2225 h 1.32925 1.32925 l 3.82466,-3.75 3.82466,-3.75 -1.9318,2.5 -1.93179,2.5 -2.46591,2.75 -2.46591,2.75 -0.56291,-0.03 -0.56291,-0.03 z m 64.121,-0.037 -1.66306,-0.9307 0.46032,-0.7448 0.46033,-0.7449 3.55268,0.4148 3.55269,0.4147 -0.4764,0.7709 -0.47639,0.7708 -1.87355,0.4899 -1.87355,0.49 z M 482,1424.4709 v -0.095 l 1.85886,-3.9379 1.85887,-3.9378 3.89113,-14.241 3.89114,-14.241 2.25,-0.01 2.25,-0.01 v 0.8 0.8 l -1.00744,1.0074 -1.00744,1.0075 -3.58483,12.4425 -3.58484,12.4426 -0.67058,3.9132 -0.67059,3.9132 -2.73714,0.1198 L 482,1424.566 Z m 22.5,-1.4709 -1.80998,-2 1.40499,0.035 1.40499,0.035 2.40213,1.3311 2.40212,1.3312 2.09788,-0.3871 2.09787,-0.3872 -2,0.9503 -2,0.9502 -2.09501,0.07 -2.09501,0.07 z m 36.51152,-0.7125 -2.13365,-2.7125 0.54741,-2.0375 0.54741,-2.0375 0.0137,-3.2342 0.0136,-3.2342 2.95171,-3.2658 2.95171,-3.2658 -0.56834,2.25 -0.56834,2.25 H 547.38337 550 l 2,-2 2,-2 v -1.4503 -1.4503 l -1.75,-1.0703 -1.75,-1.0704 2.99145,0.2707 2.99145,0.2706 0.30969,1.6348 0.30968,1.6348 -2.30113,2.64 -2.30114,2.6401 -4.46339,0.7466 -4.46338,0.7466 -0.63302,3.095 -0.63301,3.0951 0.47141,3.2119 0.4714,3.2119 2.51254,1.1448 2.51253,1.1448 3.49035,-3.9732 3.49035,-3.9732 -1.06572,2 -1.06573,2 -2.60263,2.75 -2.60264,2.75 h -2.38695 -2.38695 z m 26.65515,2.0458 -0.66667,-0.6666 1.4e-4,-3.0834 1.3e-4,-3.0833 2.47814,-8 2.47814,-8 -0.48153,-1.5479 -0.48153,-1.548 3.32425,-1.202 L 577.642,1396 h 0.679 0.679 v 1 1 h -1.38214 -1.38215 l -2.7139,8.7044 -2.7139,8.7045 -0.52473,3.2335 -0.52473,3.2335 2.37077,-0.5949 2.37078,-0.595 -1.90499,2.157 -1.90499,2.157 h -1.17834 -1.17835 z m 39.92969,-0.8798 -1.54649,-1.5465 -1.52494,-5.135 -1.52493,-5.135 -0.0153,-1.5685 -0.0153,-1.5685 -0.96937,1.5 -0.96937,1.5 -0.0153,3.191 -0.0153,3.191 -0.76316,0.4716 -0.76316,0.4717 v -7.8758 -7.8758 l -1.30782,-1.2869 -1.30783,-1.2868 -1.67901,2.0556 -1.67902,2.0557 -3.32061,3.9443 -3.32061,3.9444 4.72449,-7 4.7245,-7 1.04223,-0.6802 1.04224,-0.6802 1.76084,0.9423 1.76085,0.9424 0.58822,3.7379 0.58822,3.7378 0.73701,2.9818 0.73702,2.9818 2.4678,-4.9804 2.4678,-4.9803 3.39788,-2.2515 3.39789,-2.2514 h 3.22967 3.22967 l 1.24534,1.5005 1.24535,1.5006 0.50847,4.5112 0.50848,4.5112 -1.70322,4.4598 -1.70322,4.4598 -3.00488,2.5285 -3.00488,2.5284 h -0.84635 -0.84635 l 2.8085,-2.8085 2.80851,-2.8085 1.28194,-5.7283 1.28194,-5.7283 -0.9304,-3.7132 -0.9304,-3.7132 -3.47241,0.1731 -3.47241,0.173 -2.09887,2.4401 -2.09888,2.4401 -1.28159,6.0391 -1.28159,6.0392 0.94487,2.8477 0.94488,2.8477 2.42103,1.2353 2.42103,1.2352 -2.67857,0.015 -2.67857,0.015 z m 18.38358,0.022 -1.26494,-1.5241 0.54813,-0.5482 0.54814,-0.5481 3.84437,2.0281 3.84436,2.0281 -3.12756,0.044 -3.12755,0.044 z m 19.60968,0.2134 -1.79265,-1.3108 -0.52082,-4.6208 -0.52083,-4.6207 2.14757,-4.4363 2.14757,-4.4363 2.12957,-1.8821 2.12957,-1.8822 -1.74881,2.718 -1.74882,2.7179 0.46353,1.2821 0.46352,1.282 -1.48894,1.7107 -1.48895,1.7107 0.68865,4.5923 0.68865,4.5923 2.56431,1.1683 2.5643,1.1684 2.86648,-3.4336 2.86648,-3.4336 v 0.6775 0.6774 l -3.10359,3.5348 -3.10359,3.5348 h -2.20528 -2.20528 z M 672.5567,1422.7775 671,1420.555 v -3.3096 -3.3096 l 1.40283,-3.3575 1.40283,-3.3574 3.69563,-4.0906 3.69562,-4.0907 3.51285,-0.9699 3.51285,-0.9699 2.21852,1.4536 2.21852,1.4536 0.67018,-0.6702 0.67017,-0.6701 v 2.1015 2.1016 l -1.10242,2.8151 -1.10242,2.8151 -1.78767,6.3379 -1.78767,6.3379 1.87274,-0.4898 1.87274,-0.4897 -0.98803,1.8462 -0.98802,1.8461 -1.09059,0.674 -1.09058,0.674 -1.28837,-1.3683 -1.28838,-1.3683 0.99131,-6.5 0.99132,-6.5 1.52064,-3.6962 1.52065,-3.6962 -0.59624,-1.5538 -0.59624,-1.5538 h -2.59713 -2.59712 l -1.90289,1.0184 -1.90288,1.0184 -2.56636,4.3791 -2.56635,4.3792 -0.57864,4.8857 -0.57864,4.8857 1.61531,1.3406 1.61531,1.3406 3.58511,-3.8739 3.58511,-3.8738 -2.19813,3.7713 -2.19812,3.7712 -2.11118,1.4788 -2.11118,1.4787 h -0.72079 -0.72079 z M 747,1423 l -2,-2 0.0298,-5.75 0.0298,-5.75 4.05689,-4.5 4.05688,-4.5 -1.58672,2.4725 L 750,1405.445 v 0.7775 0.7775 l 2.75,0.1316 2.75,0.1317 -3.5,0.6183 -3.5,0.6184 -0.30605,5.3593 -0.30605,5.3593 1.71104,1.8907 1.71104,1.8907 h 1.40138 1.40138 l 2.94363,-3.2229 2.94363,-3.2228 v 0.688 0.6881 l -3.10359,3.5348 -3.10359,3.5348 H 751.39641 749 Z m 15.55338,0.1682 -0.5814,-1.8318 4.05335,-13.9182 4.05334,-13.9182 0.11418,-2.797 0.11418,-2.797 1.93213,-1.034 1.93213,-1.034 0.56263,0.5626 0.56263,0.5626 -4.31167,14.5879 -4.31166,14.588 -0.11576,3.1804 -0.11575,3.1805 -0.77987,1.25 -0.77987,1.25 h -0.8736 -0.87359 z m 9.79895,0.8385 -2.14768,-0.8665 -0.70246,-1.1367 -0.70246,-1.1366 0.56893,-0.5689 0.56892,-0.5689 2.49603,1.6354 2.49602,1.6355 h 2.41274 2.41274 l 1.20506,-1.452 1.20507,-1.452 -0.72871,-2.298 -0.72871,-2.298 -2.31401,-3.6669 -2.314,-3.6669 -0.65157,-2.5961 -0.65157,-2.5961 1.23411,-1.487 1.23411,-1.487 0.62755,0 0.62756,0 0.11148,2.7477 0.11149,2.7477 3.19508,5.1005 3.19508,5.1006 -0.68885,2.7446 -0.68886,2.7446 -3.11771,1.9011 -3.11771,1.9011 -1.5,-0.06 -1.5,-0.06 z m 28.27915,0.2914 L 800,1423.6667 v -2.2953 -2.2952 l 2.48723,-7.7881 2.48724,-7.7881 -0.0205,-2 -0.0205,-2 -1.96673,2.3608 -1.96673,2.3608 v -1.0703 -1.0704 l 2.72655,-2.5282 2.72656,-2.5282 1.3768,1.3768 1.3768,1.3768 -2.68049,9.3173 -2.6805,9.3172 0.44524,2.3291 0.44523,2.3291 -1.73661,0.9294 -1.73661,0.9294 z m 25.03519,0.035 -0.66667,-0.6666 1.4e-4,-2.0834 1.3e-4,-2.0833 2.48486,-8 2.48486,-8 0.015,-1.1767 0.015,-1.1767 -1.67859,-0.3233 -1.6786,-0.3233 1.82542,-1.8254 1.82542,-1.8254 2.03148,2.0315 2.03148,2.0315 -3.30391,9.5849 -3.30391,9.585 0.70737,0.7074 0.70736,0.7074 1.41824,-1.9396 1.41824,-1.9396 v 1.6522 1.6522 l -2.18856,2.0389 -2.18856,2.039 h -0.64477 -0.64478 z m 20.94922,-0.8919 -0.5981,-1.5586 1.04494,-4.6914 1.04494,-4.6914 2.07089,-7 2.07089,-7 1.29773,-1.3867 1.29774,-1.3868 1.73104,0.6643 1.73103,0.6642 -1.55442,1.2225 -1.55443,1.2225 -2.59907,9.1882 -2.59907,9.1881 v 2.0619 2.0618 h 0.67126 0.67126 l 2.0178,-1.75 2.0178,-1.75 -2.25715,3.25 -2.25716,3.25 h -1.82492 -1.82491 z m 20.57578,0.4836 0.35833,-1.075 0.725,0.075 L 869,1423 h 3.05902 3.05901 l -0.61803,1 -0.61803,1 h -3.52432 -3.52432 z m 18.57521,-0.675 -1.54309,-1.75 -2.51658,-5 -2.51659,-5 -0.65309,-4.7267 -0.65309,-4.7267 -1.02862,-0.6357 -1.02863,-0.6357 -3.4136,3.3085 -3.41359,3.3086 v -0.6933 -0.6932 l 3.61636,-4.0029 3.61636,-4.0029 h 1.32694 1.32693 l 1.55671,2.2225 1.5567,2.2225 v 4.6957 4.6957 l 0.60699,1.5818 0.60699,1.5818 H 884.10699 885 v -2.3042 -2.3042 l 2.86513,-4.5179 2.86513,-4.5178 3.536,-1.678 3.536,-1.6779 h 2.90774 2.90774 l 1.67344,1.25 1.67344,1.25 -2.49562,8 -2.49561,8 0.2072,3.7228 0.20721,3.7227 -0.65077,0.6508 -0.65077,0.6508 -1.54313,-0.5922 L 898,1424.0628 v -2.9057 -2.9056 l 1.42374,-4.0354 1.42375,-4.0353 -0.58022,-0.5802 -0.58021,-0.5802 1.84259,-4.0862 1.8426,-4.0861 -1.43613,-0.9512 -1.43612,-0.9512 -2.90469,0.5331 -2.90469,0.5331 -1.50445,1.244 -1.50444,1.2441 -2.3311,5 -2.33109,5 -0.01,3.55 -0.01,3.55 1.19769,1.1977 1.19769,1.1977 2.80231,-2.6848 2.80231,-2.6848 v 0.9909 0.991 l -3.29761,3.1961 -3.2976,3.1962 h -0.54741 -0.5474 z m 23.43312,0.55 -1.2,-1.2 5e-4,-1.55 5.1e-4,-1.55 1.88551,-5 1.88552,-5 1.25118,-5.652 1.25118,-5.652 2.35095,-1.0712 2.35095,-1.0711 1.51185,0.5801 1.51185,0.5802 v 0.7994 0.7994 l -1.93465,-0.506 -1.93465,-0.5059 -1.05096,3.8496 -1.05095,3.8495 -2.47072,7.9603 -2.47072,7.9604 0.37068,0.3707 0.37068,0.3706 2.08564,-1.1162 2.08565,-1.1162 v 0.8802 0.8802 l -1.82874,1.655 -1.82874,1.655 H 911.37126 910.4 Z m 23.46667,0.5333 -0.66667,-0.6666 0.008,-2.5834 0.008,-2.5833 2.81682,-9.7888 2.81681,-9.7887 1.49799,-1.498 1.498,-1.498 1.66306,0.6382 1.66306,0.6382 -1.85534,1.6485 -1.85534,1.6486 -2.63018,9.5404 -2.63018,9.5405 v 0.7095 0.7096 h 2 2 v 0.9648 0.9648 l -1.93426,1.0352 -1.93426,1.0352 h -0.89907 -0.89908 z m 32.98832,-1.162 -1.65499,-1.8288 0.004,-5.4212 0.004,-5.4213 2.14012,-3.5 2.14013,-3.5 0.73668,2 0.73667,2 -1.38054,1.5787 -1.38054,1.5788 v 4.5163 4.5162 l 1.90907,1.7277 1.90908,1.7277 3.34092,-1.6259 3.34093,-1.6258 -2.80576,2.5531 -2.80577,2.5532 h -2.28925 -2.28924 z m 17.41759,-0.8062 L 981,1419.7303 v -3.3973 -3.3972 l 1.36198,-3.2179 1.36199,-3.2179 2.06847,-1.842 2.06846,-1.8421 -0.54708,2.0921 -0.54708,2.092 h 2.57616 2.57616 l 2.54298,-2.7425 2.54297,-2.7425 -0.3574,-1.0075 -0.35739,-1.0075 -2.89511,0.223 -2.89511,0.2229 2.18631,-1.0973 2.1863,-1.0974 2.5637,0.6435 2.56369,0.6434 v 0.9652 0.9651 l -2.75,3.0506 -2.75,3.0505 -4,0.604 -4,0.604 -1.25,0.9837 -1.25,0.9837 0.0147,3.6275 0.0147,3.6276 1.26479,2.5 1.2648,2.5 h 2.43063 2.43063 l 2.28984,-3.3979 2.28983,-3.3979 v 1.4517 1.4518 l -3.29761,3.1961 -3.2976,3.1962 h -2.12982 -2.12981 z M 580,1422.5504 v -1.4497 l 4.06726,-14.2143 4.06726,-14.2143 -0.5482,-2.1842 -0.54821,-2.1842 2.61017,-1.1893 2.61017,-1.1893 0.51419,0.5142 0.51419,0.5142 -3.64341,12.3921 L 586,1411.7378 v 2.1108 2.1109 l -1.60858,4.0203 -1.60858,4.0202 H 581.39142 580 Z m 55.33412,0.3224 1.83412,-1.0663 -0.65491,-2.6533 -0.65492,-2.6532 -2.9292,-4.5875 L 630,1407.3249 v -2.9219 -2.9219 l 1.75,-1.0887 1.75,-1.0888 0.0687,3.5982 0.0687,3.5982 2.68134,3.8895 2.68134,3.8896 v 3.2055 3.2054 l -1.82874,1.655 -1.82874,1.655 -0.92126,-0.03 -0.92126,-0.03 z m 61.18434,-1.9568 0.67737,-3.0841 2.37604,-7.1659 2.37605,-7.166 0.026,-1.357 0.026,-1.357 -1.5,0.5756 -1.5,0.5756 v -0.8461 -0.8462 l 1.45196,-1.205 1.45196,-1.2051 1.79804,0.3638 1.79804,0.3638 -0.15056,1.9688 -0.15056,1.9688 -1.57524,7.07 -1.57524,7.0699 -1.53762,3.6801 -1.53762,3.68 h -1.56604 -1.56603 z m 113.78549,1.334 0.53722,-1.75 2.774,-9.4351 2.774,-9.4352 -1.13841,-0.3794 -1.13841,-0.3795 0.55082,-1.4354 0.55081,-1.4354 h 1.92439 1.9244 l 0.47445,1.25 0.47445,1.25 -1.91389,6.6753 -1.91388,6.6753 0.43318,0.4331 0.43318,0.4332 -1.98959,4.6416 -1.9896,4.6415 h -1.65216 -1.65217 z M 859,1422.1788 v -1.9878 l 4.40469,-14.7621 4.40469,-14.7621 -0.48225,-1.2567 -0.48225,-1.2567 2.16321,-1.1577 2.1632,-1.1577 0.51826,0.5182 0.51825,0.5183 -3.97651,13.3127 -3.97651,13.3128 0.78023,0.5019 0.78023,0.5019 -2.15762,4.4469 -2.15762,4.4468 -1.25,0.3846 -1.25,0.3846 z m 85.49336,0.071 0.70734,-1.75 2.53186,-8.4235 2.53185,-8.4235 -1.06053,-1.6982 -1.06054,-1.6981 1.12833,-1.1284 L 950.4,1398 h 1.24098 1.24099 l 0.53617,0.8676 0.53618,0.8675 -1.42668,7.3825 -1.42668,7.3824 -1.19557,3.5 -1.19557,3.5 -0.97736,1.25 -0.97735,1.25 h -1.48454 -1.48455 z M 515,1420.5349 v -2.7099 l -3.5,-6.2586 -3.5,-6.2586 v -1.5315 -1.5314 l 1.37179,-1.1385 1.37179,-1.1385 0.59853,2.9926 0.59852,2.9927 2.56981,3.8832 2.56981,3.8833 0.55767,3.4365 0.55768,3.4366 -1.5978,1.326 -1.5978,1.3261 z m 362,-1.4759 v -0.941 l 0.98855,-0.6109 0.98854,-0.611 -0.59553,1.552 -0.59554,1.5519 H 877.39301 877 Z m -170.53279,-10.9956 1.51857,-2.9366 1.00883,-0.6235 1.00884,-0.6235 -2.1005,3.5601 -2.1005,3.5601 h -0.42691 -0.4269 z m -50.79413,-3.4026 3.6437,-3.3392 -0.77561,-1.255 -0.7756,-1.2549 -2.38279,0.4555 -2.38278,0.4555 v -0.3861 -0.3861 l 2.49132,-0.9472 2.49131,-0.9472 1.56278,0.5997 1.56278,0.5997 -0.30409,2.5899 -0.3041,2.59 -3.39788,2.2823 -3.39789,2.2823 h -0.83743 -0.83743 z M 974.75,1405.885 978,1403.8036 V 1401.4018 1399 l -1.25,-0.07 -1.25,-0.07 2,-0.8161 2,-0.8162 0.83466,0.7711 0.83467,0.7711 -0.33467,2.331 -0.33466,2.331 -3.39788,2.2843 -3.39789,2.2844 -1.10211,-0.017 -1.10212,-0.017 z M 757.82569,1404.6855 760,1402.3711 V 1401.1855 1400 l -1.25,-0.1185 -1.25,-0.1185 -1.5,0.2021 -1.5,0.202 1.12818,-1.1617 1.12818,-1.1618 2.86327,0.3282 2.86327,0.3282 0.31415,1.658 0.31415,1.6579 -2.79538,2.5921 -2.79538,2.592 h -0.93454 -0.93453 z M 956,1404.5185 v -0.5995 l 2.18806,-2.9595 2.18806,-2.9595 H 962.18806 964 v 0.8119 0.812 l -2.75,2.0022 -2.75,2.0022 -1.25,0.7449 -1.25,0.7448 z m -171.5,-4.6347 -4,-1.8314 3.12756,-0.026 3.12755,-0.026 1.26495,1.5242 1.26494,1.5241 -0.3925,0.3335 -0.3925,0.3334 z m -266.49169,0.1425 -1.49169,-0.9431 -2.50831,0.5215 -2.50831,0.5215 1.7755,-1.127 1.7755,-1.1271 2.64738,0.3139 2.64738,0.314 0.41045,1.25 0.41046,1.25 -0.83334,-0.015 -0.83333,-0.015 z m 121.44169,0.071 -0.95,-0.903 -2,-0.5191 -2,-0.5191 3.9227,0.1721 3.9227,0.172 0.41063,1.25 0.41064,1.25 H 641.78333 640.4 Z m 333.28333,-0.2212 1.23334,-1.2426 0.55979,0.5598 0.5598,0.5598 -1.79313,0.6828 -1.79313,0.6828 z m -165.28718,-6.963 -0.67189,-1.0872 1.04565,-1.0456 1.04566,-1.0457 1.56721,0.6014 1.56722,0.6014 v 1.5314 1.5314 h -1.94098 -1.94099 z m -155.1116,-19.6768 -2.16545,-0.353 -0.58779,-1.5318 -0.5878,-1.5318 0.60874,-0.9849 0.60874,-0.985 2.14451,1.9479 2.1445,1.9479 1.44944,0.4438 1.44944,0.4438 -1.44944,0.478 -1.44944,0.4781 z m 8.38992,-4.8897 1.99792,-2.8464 1.34616,-4 1.34615,-4 0.0426,-8.3306 0.0426,-8.3306 -1.99513,-1.4589 -1.99513,-1.4589 1.44125,-0.8907 1.44125,-0.8907 1.67691,0.8974 1.67692,0.8975 1.1194,4.4455 1.11941,4.4456 -0.53846,3.3372 -0.53845,3.3372 -1.10368,6 -1.10367,6 -1.02748,1.3159 -1.02747,1.316 -2.95956,1.5304 -2.95956,1.5305 z m 215.41459,-4.1975 1.15602,-1.851 -1.65188,-3.3113 -1.65187,-3.3113 0.4808,-0.4808 0.48079,-0.4808 0.63053,1.6432 0.63053,1.6431 1.14301,0.015 1.14301,0.015 1.36746,0.8663 1.36747,0.8663 -2.30552,3.1184 -2.30553,3.1184 h -0.82041 -0.82042 z m -283.35737,-1.3859 1.07946,-1.3006 4.49402,-15.4812 4.49402,-15.4812 0.67916,-1.7416 0.67916,-1.7415 -1.43131,-0.5493 -1.4313,-0.5492 -2.92245,1.1044 -2.92245,1.1044 -2.75,2.6235 -2.75,2.6235 0.004,-0.9371 0.004,-0.9371 1.91402,-3.1389 1.91402,-3.139 13.79516,-0 13.79516,-0 -1.61469,1.1807 -1.6147,1.1807 0.52227,2.7321 0.52227,2.7321 -3.52049,-3.5205 L 612.2,1326 h -2.12475 -2.12475 l -0.95987,2.5246 -0.95987,2.5247 -4.08729,14.1464 -4.08729,14.1463 0.49322,1.8861 0.49323,1.8861 -1.17132,-0.4135 -1.17131,-0.4135 -2.39888,0.8882 -2.39888,0.8883 z m 31.65013,-0.1892 -1.83323,-1.3405 4.7007,-0.3738 4.70071,-0.3739 v 0.2315 0.2315 l -2.86747,1.4829 -2.86748,1.4828 z m 18.20304,-0.6464 L 640,1359.8548 v -4.977 -4.9771 l 1.41072,-2.7004 1.41073,-2.7003 3.32364,-3 3.32364,-3 -1.70803,2.0496 -1.70804,2.0497 -1.52633,4.3261 -1.52633,4.3261 v 2.6517 2.6518 l 1.5567,2.2225 1.55671,2.2225 h 1.4085 1.4085 l 3.78479,-3.1345 3.7848,-3.1345 -4.69179,4.6345 -4.69179,4.6345 h -0.92335 -0.92335 z M 791.45455,1361.5455 789,1359.0909 v -4.5776 -4.5775 l 1.44497,-3.4583 1.44498,-3.4584 2.50957,-2.5095 2.50957,-2.5096 1.79546,0.068 1.79545,0.068 -2.14614,1.0387 -2.14613,1.0388 -1.85387,4.1112 -1.85386,4.1111 v 5.8395 5.8395 l 2.5,1.9207 2.5,1.9206 -1.79545,0.022 -1.79546,0.022 z m 73.54545,1.6889 -1.5,-0.4954 -1.75,-1.5245 -1.75,-1.5245 v -5.6328 -5.6327 l 2.90202,-3.4623 2.90202,-3.4622 -0.52142,2.7648 -0.52142,2.7648 -0.8806,0.5442 -0.8806,0.5442 v 4.7499 4.7498 l 1.4192,1.9409 1.41919,1.9409 3.15413,-1.1906 3.15413,-1.1905 -1.24108,1.4954 -1.24108,1.4954 -1.58225,0.8103 -1.58224,0.8102 z m -250,-1.8595 v -1.5623 l 4.5,-15.2591 4.5,-15.259 v -1.6121 -1.612 l 2,-1.0704 2,-1.0704 v 1.6744 1.6743 l -2.95671,9.6109 -2.95671,9.6108 -0.70534,4.5 -0.70534,4.5 -1.30069,3.1287 -1.3007,3.1287 -1.53725,0.5899 -1.53726,0.5899 z m 77,-1.3368 v -2.9619 l 2.48723,-7.7881 2.48724,-7.7881 0.0128,-1.5757 0.0128,-1.5757 2.5,-2.3486 2.5,-2.3486 v 1.2318 1.2318 l -2.9526,9.1925 -2.9526,9.1925 -0.65581,2.75 -0.65581,2.75 h 1.47355 1.47355 l 2.70342,-2.1265 2.70342,-2.1265 2.48339,-5.6235 2.48339,-5.6235 3.14422,-3.25 3.14421,-3.25 H 715.19617 716 l -2.08853,2.0885 -2.08852,2.0886 -1.88951,4.1614 -1.88952,4.1615 -0.022,3.1682 -0.022,3.1682 0.60699,1.5818 0.60699,1.5818 h 1.3096 1.30961 l 2.03381,-2.75 2.03382,-2.75 -0.5446,2.1642 -0.54459,2.1641 -2.31661,2.1764 -2.3166,2.1763 -1.73203,-0.3405 -1.73202,-0.3405 -0.78504,-1.5 -0.78503,-1.5 -0.60597,-1.9199 -0.60597,-1.9199 -3.75834,3.6699 -3.75835,3.6699 H 694.20784 692 Z m 27.30245,1.3077 -0.63477,-1.6542 1.09843,-4.0958 1.09843,-4.0958 0.73729,-2 0.7373,-2 -2.41956,2 -2.41957,2 1.65041,-2 1.65042,-2 1.53943,-3.7282 1.53944,-3.7281 -1.0182,-0.6293 -1.01819,-0.6293 -2.67165,-0.8066 -2.67166,-0.8066 5.19098,-0.086 5.19099,-0.086 0.54541,0.8825 0.54541,0.8825 -2.86416,9.5397 -2.86415,9.5398 0.91054,0.9105 0.91055,0.9106 -0.63978,1.6672 -0.63977,1.6672 h -1.42439 -1.4244 z m 10.70793,-1.5225 0.0104,-3.3233 3.47924,-11.5 3.47924,-11.5 0.0104,-2.6682 0.0104,-2.6682 0.60699,-1.5818 0.60699,-1.5818 h 2.26487 2.26488 l -3.99983,13.25 -3.99983,13.25 -0.62204,5.4879 -0.62203,5.4879 -1.75,0.3354 -1.75,0.3354 z m 23.96072,1.1227 -1.09926,-2.054 -1.4251,-4.696 -1.42509,-4.696 -0.0108,-0.7585 -0.0108,-0.7584 2.04087,1.2584 2.04088,1.2585 1.09928,4.3352 1.09929,4.3351 1.39709,0.5362 1.39708,0.5361 2.13465,-1.8713 2.13465,-1.8713 -0.824,1.5 -0.824,1.5 -1.50288,1.75 -1.50289,1.75 h -1.80982 -1.80983 z m 22.69557,1.3873 L 776,1361.6667 v -1.8228 -1.8229 l 2.95989,-10.5411 2.9599,-10.5411 0.59912,-0.9694 0.59912,-0.9694 h 1.01242 1.01241 l 1.5,1.5 1.5,1.5 h -1.51092 -1.51091 l -2.62086,8.75 -2.62087,8.75 -0.48033,1.6658 -0.48032,1.6659 0.89335,0.5521 0.89336,0.5521 1.89732,-1.4361 1.89732,-1.4362 0.7848,-0.032 0.78479,-0.032 -3.41681,3 -3.41681,3 h -0.95132 -0.95132 z M 822,1360.7928 v -2.3739 l 3.02952,-9.3466 3.02953,-9.3466 -0.5234,-0.5234 -0.52339,-0.5234 -2.16093,1.9106 -2.16093,1.9105 1.71479,-2.666 1.71479,-2.6661 1.2807,-0.4914 1.28069,-0.4915 1.33831,0.8272 1.33831,0.8271 -1.27718,5.8303 -1.27717,5.8304 -2.15182,6.4275 -2.15182,6.4276 -1.25,0.4058 -1.25,0.4058 z m 13.01116,0.9572 0.0112,-1.25 2.97768,-9.5 2.97768,-9.5 0.0112,-1.1804 0.0112,-1.1805 -2.25,-0.3415 -2.25,-0.3416 2.17756,-1.2244 2.17756,-1.2244 1.57244,0.6034 1.57244,0.6034 v 2.2556 2.2556 l -2.071,8.3874 -2.071,8.3874 -1.45205,2.25 -1.45206,2.25 H 835.97695 835 Z m 14.65122,-0.1874 -0.5516,-1.4375 2.45562,-9.1759 2.45562,-9.1758 0.55324,-0.8952 0.55323,-0.8951 -2.2772,-0.8424 -2.27719,-0.8424 2.32961,-1.2468 2.32962,-1.2467 1.38529,1.3852 1.38528,1.3853 -2.54818,9.8042 -2.54817,9.8042 1.02243,1.2319 1.02243,1.232 -1.1762,1.1762 L 852.6,1363 h -1.19301 -1.19301 z M 672.30949,1359 l 2.4544,-3.5 1.61806,-3.2003 1.61805,-3.2004 v -4.5819 -4.5818 l -2.25,-0.8677 -2.25,-0.8676 1.69159,-0.6847 1.69158,-0.6847 1.80842,0.3432 1.80841,0.3432 0.3104,4.3008 0.31041,4.3009 -2.07984,4.2964 -2.07984,4.2963 -3.55302,3.8942 -3.55302,3.8941 z m 67.0238,1.25 0.56656,-1.75 4.65587,-16 4.65587,-16 1.3704,-1.4405 1.37039,-1.4405 0.63341,0.6335 0.63341,0.6334 -3.11131,10.307 -3.11131,10.3071 -1.07499,6 -1.075,6 -1.44635,2.25 -1.44635,2.25 h -1.59357 -1.59358 z m 63.56389,-1.8971 2.14016,-2.8947 1.00625,-6.2483 1.00626,-6.2482 -1.0903,-2.0373 -1.09029,-2.0372 -2.18463,-0.8802 -2.18463,-0.8802 3.22695,-0.063 3.22694,-0.063 1.65863,2.5314 1.65863,2.5314 -0.61731,5.2122 -0.61731,5.2121 -2.76826,3.9274 -2.76827,3.9273 -1.37149,0.4529 -1.37149,0.453 z m -168.60265,-4.1618 0.9995,-3.7447 -0.67619,-4.4732 -0.6762,-4.4732 -0.99991,-1.5 -0.99992,-1.5 -3.07309,3.5 -3.0731,3.5 1.623,-3.2406 1.623,-3.2406 2.60833,-1.709 2.60833,-1.7091 1.87086,2.3105 1.87086,2.3104 v 4.9213 4.9213 l -1.39797,3.3458 -1.39796,3.3458 -0.95452,0.59 -0.95453,0.5899 z m 16.2475,-9.4717 4.76041,-3.2805 0.0421,-0.9695 0.0421,-0.9694 -2.94331,-0.5384 -2.9433,-0.5383 2.5,-0.698 2.5,-0.698 1.71482,-0.014 1.71481,-0.014 1.02681,1.9186 1.02682,1.9186 -6.40412,3.5814 -6.40411,3.5814 h -0.69671 -0.6967 z m 108.67651,0.1989 2.27842,-3.0817 -1.96979,-1.4404 -1.96978,-1.4403 -1.2787,0.4906 -1.27869,0.4907 v -0.9334 -0.9334 l 1.92756,-1.0316 1.92756,-1.0316 1.60022,0.614 1.60022,0.6141 1.01846,1.903 1.01847,1.903 -0.69501,1.2294 -0.69501,1.2293 -2.02555,2.25 -2.02555,2.25 h -0.85562 -0.85562 z m 113.09437,-1.723 2.68709,-2.8047 v -0.5787 -0.5786 l -1.93584,-0.5063 -1.93585,-0.5062 -2.81415,1.4465 -2.81416,1.4466 1.64693,-1.6682 1.64694,-1.6681 4.60306,-0.5189 4.60307,-0.5188 v 2.0792 2.0791 l -3.34439,2.5509 -3.34439,2.5509 h -0.8427 -0.8427 z M 848,1342 l 1.07037,-2 h 0.5 0.5 l -1.07037,2 -1.07037,2 h -0.5 -0.5 z m -321.5625,-92.7054 -1.70536,-1.7053 1.18475,-0.3949 1.18474,-0.3949 3.01667,1.2495 3.01667,1.2495 -1.31748,0.8355 -1.31749,0.8354 -1.17857,0.015 -1.17857,0.015 z m 312.54244,0.1812 -1.26494,-1.5241 0.56763,-0.5677 0.56764,-0.5676 3.62543,1.311 3.62544,1.311 -1.80057,0.7105 -1.80057,0.7105 -1.12756,0.07 -1.12755,0.07 z m -301.7078,-3.238 2.64633,-2.7621 1.63808,-6.9879 1.63809,-6.9878 -0.53477,-5.344 -0.53477,-5.344 -1.71533,-1.2543 -1.71532,-1.2543 0.71179,-1.1517 0.71179,-1.1517 h 1.3223 1.32229 l 2.50844,3.2887 2.50845,3.2888 -1.87329,9.8944 -1.8733,9.8944 0.3433,0.3433 0.3433,0.3433 3.51944,-3.8956 3.51944,-3.8956 2.1208,-5.6684 2.1208,-5.6683 v -1.4306 -1.4305 l -2.57357,-1.3485 -2.57358,-1.3484 1.56857,-1.3018 1.56857,-1.3018 2.505,1.6414 2.50501,1.6413 v 1.961 1.961 l -2.8929,5.9721 -2.89289,5.972 -2.04831,2.604 -2.0483,2.604 -6.0966,5.4399 -6.0966,5.4399 h -1.14929 -1.14929 z m 312.19901,0.382 2.38024,-2.3803 1.5743,-5.3012 L 855,1233.637 v -6.9898 -6.9897 l -1.59796,-1.7657 -1.59796,-1.7658 0.65698,-1.063 0.65697,-1.063 h 1.4058 1.4058 l 1.03519,1.9343 1.03518,1.9342 0.004,3.3158 0.004,3.3157 1.86322,-3 1.86323,-3 2.65774,-2.4475 2.65773,-2.4475 2.18583,2.1858 2.18583,2.1858 -1.25709,4.7617 -1.25708,4.7617 -3.46366,5.25 -3.46366,5.25 h -0.48054 -0.48054 l 2.90507,-4.75 2.90507,-4.75 0.67033,-4.5573 0.67033,-4.5573 -1.6034,-1.3307 -1.60341,-1.3307 -1.77101,1.6027 -1.77102,1.6028 -1.64817,4.7852 -1.64816,4.7853 -0.66925,6.5 -0.66924,6.5 -1.64046,1.8524 -1.64045,1.8524 -2.7027,1.3976 -2.7027,1.3976 h -0.50421 -0.5042 z M 370.45455,1239.5455 368,1237.0909 v -5.0951 -5.0951 l 1.62059,-3.2004 1.62059,-3.2003 1.61822,-1.8426 1.61822,-1.8426 2.01119,-1.0431 2.01119,-1.0431 -2.2162,2.4142 -2.2162,2.4141 -1.5338,4.3473 -1.5338,4.3473 0.004,3.6242 0.004,3.6243 1.98156,3.25 1.98156,3.25 h -1.03075 -1.03076 z m 222.01073,1.435 -2.03472,-0.7568 -1.19064,-1.4346 -1.19064,-1.4346 -0.13732,-4.9273 -0.13732,-4.9272 1.01431,-2.5564 1.01431,-2.5563 2.71749,-3.2296 2.71748,-3.2295 2.82468,-1.4607 2.82469,-1.4607 2.5083,0.9536 2.50831,0.9537 1.66672,3.2231 1.66671,3.223 -1.19313,5.3315 -1.19313,5.3315 -2.53355,3.0109 -2.53355,3.011 -2.14214,1.1132 -2.14214,1.1131 2.12504,-2.3857 2.12503,-2.3857 1.02627,-2 1.02627,-2 0.69841,-4.6578 0.69841,-4.6577 -0.681,-3.1006 -0.68099,-3.1005 -1.81185,-0.9697 -1.81184,-0.9697 -2.73251,2.1494 -2.7325,2.1494 -1.85241,4.0786 -1.85241,4.0786 -0.022,5.0589 -0.022,5.0588 1.25,1.6068 1.25,1.6068 2,0.3639 2,0.3639 -1.5,0.589 -1.5,0.5891 z M 391.25,1240.3377 390,1239.8333 v -1.5191 -1.5192 l 3,-8.9544 3,-8.9544 V 1218.4431 1218 h -1.42857 -1.42857 l -1.56132,1.5613 -1.56132,1.5613 -1.58445,5.4503 -1.58444,5.4503 -2.53353,3.011 -2.53352,3.0109 -2.14214,1.1071 -2.14214,1.107 2.7697,-2.9549 2.76969,-2.9549 0.98031,-3.4181 0.9803,-3.4181 -0.004,-4.0066 -0.004,-4.0066 -1.91108,-3.1341 -1.91108,-3.1341 1.97922,0.5176 1.97922,0.5175 1.63294,2.6166 1.63294,2.6165 0.30305,0.4171 0.30304,0.417 3.94098,-3.167 3.94097,-3.1671 H 397.94136 399 v 2.7851 2.7851 l -2.47396,7.4649 -2.47396,7.4649 -0.026,1.8666 -0.026,1.8667 2,-0.523 2,-0.5231 v 0.8712 0.8712 l -1.93426,1.0352 -1.93426,1.0352 -0.81574,-0.079 -0.81574,-0.079 z m 35.37138,-0.8592 L 425,1237.8571 v -4.7327 -4.7328 l 2.89483,-4.5647 2.89483,-4.5647 3.44956,-2.6311 3.44956,-2.6311 h 0.69041 0.6904 l -3.69177,3.2414 -3.69178,3.2414 -1.82106,4.0086 -1.82106,4.0086 -0.007,3.5 -0.007,3.5 0.93337,1.476 0.93338,1.476 3.30131,-2.42 3.30131,-2.42 -2.62508,3.444 -2.62508,3.444 -1.50354,0.2999 -1.50354,0.3 z m 12.7835,0.1342 -0.53236,-1.3873 1.55336,-7.5203 1.55337,-7.5203 1.0388,-2.7323 1.03879,-2.7322 -1.68341,-1.8602 -1.68341,-1.8601 h 0.50577 0.50576 l 3.24099,1.1298 3.24098,1.1298 -0.52394,2.1202 -0.52395,2.1202 -1.84777,6.6324 -1.84777,6.6324 -1.34249,1.6176 -1.34249,1.6176 h 0.92245 0.92244 l 1.2,-1.2 1.2,-1.2 v 2 2 l -1.2,1.2 -1.2,1.2 h -1.33138 -1.33139 z M 470.5567,1238.7775 469,1236.555 v -3.8096 -3.8096 l 1.39522,-3.2179 1.39521,-3.2179 3.21019,-3.5 3.21019,-3.5 -1.61954,2.5 -1.61953,2.5 -0.34466,1 -0.34466,1 -1.14121,3.571 -1.14121,3.571 v 2.679 2.679 l 2.01693,2.0169 2.01692,2.017 3.23308,-1.5701 3.23307,-1.5701 -2.80576,2.5531 -2.80577,2.5532 h -2.38753 -2.38753 z m 55.07478,1.5206 L 525,1239.6667 v -2.6111 -2.6111 l 2.56595,-7.8563 2.56595,-7.8563 -1.02357,-1.0236 -1.02357,-1.0235 -1.79238,1.3773 -1.79238,1.3774 2.42431,-2.7198 2.42432,-2.7197 h 1.21067 1.21068 l 1.72049,2.6258 1.72048,2.6258 -1.02904,0.636 -1.02905,0.636 -3.00657,8.2382 -3.00658,8.2382 h 0.87113 0.87113 l 0.61803,-1 0.61803,-1 h 0.97617 0.97617 l -1.0581,1.9771 -1.05811,1.9771 -1.8456,0.9877 -1.84559,0.9877 z m 44.99505,-1.4209 L 569,1236.555 v -4.3272 -4.3271 l 1.61697,-3.2004 1.61698,-3.2003 2.13302,-2.345 2.13303,-2.345 2.70034,-1.405 2.70034,-1.405 h 1.92722 1.92721 l 1.3497,1.6263 1.34971,1.6263 -4.1524,-0.7016 -4.15239,-0.7015 -2.15988,1.1559 -2.15988,1.156 -1.89302,4.1693 -1.89303,4.1693 -0.022,4.595 -0.022,4.595 1.90907,1.7277 1.90908,1.7277 3.34092,-1.6783 3.34093,-1.6784 -2.00347,2.0814 -2.00347,2.0813 -3.12,0.624 -3.12,0.624 z m 60.02846,0.2941 L 629,1237.3425 v -4.7701 -4.7701 l 1.54614,-3.2583 1.54613,-3.2582 3.08704,-2.8929 3.08703,-2.8929 -2.59735,4 -2.59735,4 -0.65902,5.6268 -0.65902,5.6268 2.14013,2.1401 2.14012,2.1402 3.23308,-1.5701 3.23307,-1.5701 -2.80576,2.5531 -2.80577,2.5532 h -2.28925 -2.28924 z m 51.74036,-0.6907 -1.65075,-2.5193 0.57811,-3.5625 0.57811,-3.5625 2.02667,-4.1865 2.02668,-4.1866 4.2047,-3.2316 4.2047,-3.2316 h 2.45868 2.45869 l 4.27389,2.1345 4.2739,2.1345 3.5857,-2.2161 3.58571,-2.2161 0.59212,1.543 0.59213,1.5431 -2.49184,8.2885 -2.49185,8.2886 -0.72683,1.8008 -0.72683,1.8008 2.87648,-0.6242 2.87648,-0.6242 -2.86001,2.6201 -2.86001,2.62 -1.13999,-0.3738 -1.13999,-0.3737 -0.2843,-2.4229 -0.2843,-2.4229 2.5343,-7.4252 2.5343,-7.4251 v -1.1967 -1.1966 l -3.99936,0.1048 -3.99936,0.1049 -0.89682,3.017 -0.89683,3.0169 -1.20547,4.6489 -1.20548,4.6489 0.6813,3.1019 0.68129,3.102 -1.72424,0.6616 -1.72425,0.6617 -1.31664,-1.8007 -1.31665,-1.8006 0.82963,-1.6118 0.82963,-1.6119 0.76062,-4 0.76062,-4 0.38092,-2 0.38092,-2 0.59685,-3.2042 0.59686,-3.2041 -2.69382,-0.6761 -2.69383,-0.6761 -2.62402,1.9591 -2.62402,1.9591 -2.28892,4.3284 -2.28893,4.3285 v 4.8236 4.8237 l 2.52688,0.6342 2.52687,0.6342 -1.14932,1.3849 -1.14932,1.3848 h -1.8545 -1.8545 z m 51.27132,1.8527 L 733,1239.6667 v -2.1582 -2.1582 l 2.5,-7.3503 2.5,-7.3503 V 1218.8248 1217 h -1.62244 -1.62245 l 1.24489,-1.5 1.24489,-1.5 h 1.25511 1.25511 l 1.1996,1.4454 1.19961,1.4455 -2.8006,8.8045 -2.8006,8.8046 -0.36848,1.3466 -0.36848,1.3465 2.08563,-0.6619 2.08563,-0.662 -0.61136,1.5932 -0.61136,1.5932 -1.81661,0.9722 -1.81661,0.9722 h -0.39907 -0.39908 z m 11,0 -0.66667,-0.6666 0.0319,-2.5834 0.0319,-2.5833 2.78816,-9.2923 2.78816,-9.2922 2.23222,-2.2078 2.23221,-2.2077 -0.48304,2.7335 -0.48304,2.7335 -0.63673,1.0303 -0.63673,1.0302 -1.97519,7.2363 -1.97518,7.2362 -0.52468,1.75 -0.52469,1.75 H 748.93261 751 v 0.6398 0.6397 l -1.75,1.3285 -1.75,1.3284 -1.08333,0.032 -1.08334,0.032 z m 13.98832,-1.162 L 757,1237.3425 v -4.7701 -4.7701 l 1.54614,-3.2583 1.54613,-3.2582 3.20023,-2.8929 3.20023,-2.8929 -2.27901,2.5992 -2.27901,2.5992 -1.11488,5.995 -1.11488,5.9949 0.69188,2.7567 0.69188,2.7566 4.04973,-0.3862 4.04974,-0.3862 -2.20487,1.7854 -2.20488,1.7854 h -2.23423 -2.23422 z m 17.01187,0.013 -1.64311,-1.8156 -0.54145,-2.9344 -0.54144,-2.9344 3.32995,-5.9107 3.32996,-5.9107 3.44962,-2.5893 3.44961,-2.5893 -3.12714,3.6449 -3.12714,3.6448 -1.76375,4.6183 -1.76374,4.6183 0.90584,3.1585 0.90585,3.1585 1.1451,0.3817 1.1451,0.3817 2.58994,-2.7931 2.58994,-2.7932 v 1.017 1.0169 l -2.94363,3.2228 -2.94363,3.2229 h -1.40138 -1.40138 z m 13.47238,0.4834 -1.10564,-1.3322 1.91425,-6.9034 1.91425,-6.9034 -0.36129,-0.3613 -0.36129,-0.3613 -2.09008,4.0969 -2.09009,4.0969 h -0.56574 -0.56574 l 3.58606,-6.4125 L 793,1219.175 v -1.5589 -1.5589 l -3.25,-0.9886 -3.25,-0.9885 3.99689,0.2061 3.99688,0.2062 1.30652,-3.988 1.30651,-3.988 -0.44289,-1.6936 -0.44289,-1.6936 1.55671,-0.5974 1.5567,-0.5974 0.84435,0.8444 0.84434,0.8443 -4.62603,16.3087 -4.62603,16.3087 1.30017,0.8035 1.30017,0.8036 -1.30815,1.5762 -1.30814,1.5762 H 791 790.24489 Z m 48.8684,-2.3445 0.008,-3.8233 1.98472,-6.5 1.98472,-6.5 0.008,-1.75 L 842,1217 h -1.62244 -1.62245 l 1.24489,-1.5 1.24489,-1.5 h 1.32786 1.32787 l 0.79969,1.3387 0.79969,1.3387 2,1.1309 2,1.1309 -2.10787,0.03 -2.10787,0.03 -2.10455,8.25 -2.10455,8.25 0.21242,2.4688 0.21242,2.4688 -1.75,0.3545 -1.75,0.3545 z m 80.06494,1.0418 L 916,1235.7303 v -3.8973 -3.8972 l 1.53814,-3.6813 1.53814,-3.6813 1.70067,-1.8792 1.70067,-1.8792 1.89253,-1.0129 1.89253,-1.0129 -2.53314,3.3555 -2.53314,3.3555 -1.09262,4 -1.09263,4 0.009,2.5 0.009,2.5 1.24326,2.4568 1.24325,2.4568 2.49201,0.6935 2.492,0.6935 -3.17742,0.1 -3.17742,0.1 z m 39.27895,1.1086 -0.58569,-1.5263 4.67295,-16.0539 4.67295,-16.0539 -1.17832,-1.4198 L 963.75511,1203 H 966.37756 969 l 0.75,0.25 0.75,0.25 -0.39247,1 -0.39247,1 -4.34152,14.9168 -4.34151,14.9169 1.10643,1.3331 1.10643,1.3332 -1.24489,1.5 -1.24489,1.5 h -1.40894 -1.40894 z m 11.08637,-0.9281 -1.6885,-2.577 0.66971,-4.1881 0.66971,-4.1881 1.88554,-3.0462 1.88554,-3.0462 3.14293,-3 3.14293,-3 -3.57288,5.9412 -3.57288,5.9411 v 4.7499 4.7498 l 1.18266,0.7309 1.18266,0.7309 4.4738,-4.9219 4.4738,-4.9219 -1.1423,2 -1.1423,2 -2.80675,4 -2.80676,4 -2.14421,0.3113 -2.1442,0.3112 z m 14.22877,1.7877 L 982,1239.6667 v -2.4673 -2.4674 l 0.92958,-3.616 0.92957,-3.616 1.25655,-6 1.25654,-6 1.51273,-2.378 1.51273,-2.3779 0.10342,-4.1221 0.10342,-4.122 h 2.44773 2.44773 l -0.32966,2 -0.32965,2 -3.48183,12 -3.48183,12 -1.42234,3.25 -1.42233,3.25 h 1.28382 1.28382 l 1.2,-1.2 1.2,-1.2 v 0.7352 0.7352 l -1.61501,2.4648 -1.61501,2.4648 h -1.21832 -1.21833 z M 1004,1237.6276 v -3.3723 l 2.5,-7.6586 2.5,-7.6585 v -0.3755 -0.3755 l -2.25,0.5634 -2.25,0.5634 1.905,-2.157 1.905,-2.157 h 1.69 1.69 l 1.81,2 1.81,2 h -1.1198 -1.1198 l -1.1464,2.142 -1.1464,2.1421 -1.8677,6.5309 -1.8677,6.531 0.9551,1.1508 0.9551,1.1508 -1.1762,1.1762 L 1006.6,1241 h -1.3 -1.3 z m 25.6667,2.7057 -0.6667,-0.6666 0.013,-2.5834 0.013,-2.5833 2.5263,-7.911 2.5262,-7.911 -0.9876,-0.9876 -0.9877,-0.9877 -2.5514,1.6717 -2.5513,1.6717 v -0.4044 -0.4043 l 3.4282,-2.6149 3.4283,-2.6148 1.5717,0.6031 1.5718,0.6032 v 2.3414 2.3414 l -2.5653,8.1205 -2.5652,8.1205 1.2509,1.5073 1.251,1.5073 -1.4357,0.9085 -1.4357,0.9085 -0.5833,0.015 -0.5834,0.015 z m 21.89,-1.5558 -1.5567,-2.2225 v -3.8096 -3.8096 l 1.5381,-3.6813 1.5382,-3.6813 1.7006,-1.8792 1.7007,-1.8792 2.0112,-1.0756 2.0112,-1.0756 -3.1824,3.626 -3.1824,3.626 -0.7049,4.7007 -0.7049,4.7007 0.9057,2.5915 0.9057,2.5915 2.846,0.3275 2.8461,0.3274 2.6832,-2.3274 2.6833,-2.3275 -3.759,3.75 -3.759,3.75 h -2.482 -2.482 z m 19.2288,0.4725 -1.5245,-1.75 -0.9524,-2.9658 -0.9525,-2.9658 1.9053,-5.0342 1.9053,-5.0342 1.6666,-1.8579 1.6667,-1.858 3,-2.1067 3,-2.1067 -3.1954,3.6873 -3.1955,3.6873 -1.049,3.7774 -1.0489,3.7773 -0.01,3.3157 -0.01,3.3158 1.1497,2.1842 1.1497,2.1843 1.1003,0.7347 1.1003,0.7347 -2.095,0.015 -2.095,0.015 z m 19.9714,-0.072 -0.4764,-1.8217 4.773,-15.9283 4.773,-15.9284 -1.0558,-1.2742 -1.0557,-1.2741 0.3925,-0.3876 0.3925,-0.3875 2.808,0.5394 2.808,0.5393 -0.5104,1.33 -0.5103,1.33 -4.5477,15.0349 -4.5476,15.0348 v 0.5427 0.5427 l 2,-1.0704 2,-1.0704 v 0.8609 0.8609 l -2.3145,2.1743 -2.3144,2.1743 h -1.0689 -1.0689 z m 13.8327,0.5108 -1.7926,-1.3108 -0.5152,-4.5706 -0.5152,-4.5706 1.1323,-3.4309 1.1323,-3.4309 4.1098,-3.9377 4.1098,-3.9377 -2.5763,4 -2.5763,4 -0.968,4.3622 -0.968,4.3622 0.5471,3.3718 0.5472,3.3718 1.1217,0.9084 1.1218,0.9084 2,0.4916 2,0.4916 -3.0589,0.116 -3.0588,0.116 z m -757.12448,-1.3595 0.74026,-1.8297 1.89731,-5.4066 1.89731,-5.4065 v -2.4725 -2.4724 l -2.5,-6.9306 -2.5,-6.9306 v -1.3269 -1.3269 l 2.89025,-0.4242 2.89026,-0.4242 -1.02706,1.6446 -1.02707,1.6446 2.27247,6.9161 2.27248,6.9161 0.37476,0.4271 0.37477,0.4271 3.1272,-2.9271 3.1272,-2.9271 -1.69762,2.666 -1.69762,2.6661 -1.31897,0.5061 -1.31897,0.5061 -2.0624,6.8279 -2.06241,6.8278 0.19137,2 0.19136,2 -2.88757,0.3297 -2.88757,0.3297 z M 404,1238.0007 v -2.1322 l 0.85915,-1.6842 0.85915,-1.6843 0.65905,-3.466 0.65906,-3.4661 -1.4864,1.9661 -1.4864,1.966 -0.0318,-0.7495 -0.0318,-0.7495 2.46282,-4.7505 2.46281,-4.7505 0.5058,-1.75 0.5058,-1.75 H 411.96862 414 v 0.3434 0.3435 l -2.12514,5.9065 -2.12513,5.9066 -0.12487,6 -0.12486,6 -2.75,0.3164 -2.75,0.3164 z m 46,1.1755 v -0.8237 l 2.5572,-8.4263 2.55719,-8.4262 -0.47873,-3.1539 -0.47873,-3.1539 1.88477,-0.4929 1.88476,-0.4928 1.0281,1.2387 1.02809,1.2388 -0.46857,0.4686 -0.46856,0.4686 -0.93008,6.4394 -0.93008,6.4394 -2.05714,4.75 -2.05715,4.75 H 451.53554 450 Z m 46.67534,0.1658 -0.65799,-0.658 0.96155,-1.1586 0.96156,-1.1586 2.45764,-9.1834 2.45764,-9.1834 -0.67787,-0.1184 -0.67787,-0.1184 -0.79282,0.1327 -0.79283,0.1326 1.07801,-2.0142 1.07801,-2.0143 h 1.85782 1.85783 l 0.56495,1.4722 0.56494,1.4722 -1.87122,5.6721 -1.87121,5.672 0.45292,1.1803 0.45293,1.1803 -2.00413,4.6755 -2.00413,4.6754 h -1.36887 -1.36887 z m 14.20624,-0.019 -0.11842,-0.8233 0.22559,-1 0.22559,-1 2.37185,-8 2.37185,-8 0.021,-1.8666 0.021,-1.8667 -2.17414,0.5686 -2.17414,0.5685 2.18804,-2.188 2.18803,-2.188 1.73611,1.1171 1.7361,1.1171 -0.2638,2.369 -0.26381,2.369 -0.35767,4.5 -0.35767,4.5 -2.02515,5 -2.02514,5 -1.60338,0.3233 -1.60338,0.3233 z m 98.55596,-0.9853 0.71905,-1.838 2.40894,-7.5 2.40894,-7.5 0.0128,-2.405 0.0128,-2.405 -2.1461,1.905 -2.1461,1.905 0.45915,-1.4392 0.45915,-1.4391 2.58712,-1.9316 2.58712,-1.9315 1.16855,0.7222 1.16856,0.7222 -0.70215,6.5566 -0.70215,6.5566 -2.26835,5.5919 -2.26834,5.5919 -2.23899,0.338 -2.23898,0.338 z m 46.24467,1.0109 -0.65112,-0.6511 1.41881,-1.0989 1.41881,-1.0989 4.19764,-15 4.19765,-15 0.38918,-1.387 0.38917,-1.3869 6.2175,0.5637 6.2175,0.5638 2.26132,2.629 2.26133,2.6289 v 3.2218 3.2217 l -1.5607,2.2282 -1.56071,2.2282 -2.88963,1.4943 -2.88964,1.4943 -1.79966,-0.01 -1.79966,-0.01 3,-1.537 3,-1.5371 1.25,-1.6479 1.25,-1.648 v -4.1345 -4.1346 l -2.31445,-2.1743 L 675.3711,1205 h -2.53585 -2.53584 L 666.1497,1219.4505 662,1233.901 v 3.0495 3.0495 h -2.83333 -2.83334 z m 62.73375,-0.9905 0.62993,-1.6416 2.58436,-8.983 2.58436,-8.9831 -1.13094,-0.699 -1.13094,-0.6989 2.04726,-1.8528 2.04727,-1.8527 1.10637,1.1063 1.10636,1.1064 -1.68805,6.82 -1.68806,6.82 -1.49304,5.25 -1.49304,5.25 h -2.05589 -2.05589 z M 809,1239.5202 v -0.4797 l 1.38358,-3.7703 1.38358,-3.7702 1.67328,-6 1.67328,-6 -0.30686,-2.459 -0.30686,-2.459 1.75302,-0.3649 1.75303,-0.3649 0.59632,1.554 0.59631,1.5539 -1.48923,5.27 -1.48924,5.2699 -1.16266,4.9609 -1.16267,4.9608 -1.06988,1.2892 -1.06989,1.2891 H 810.37756 809 Z m 14.28915,-1.2702 0.52241,-1.75 2.72294,-9.2879 2.72294,-9.288 -0.6245,-0.6245 -0.62449,-0.6245 -2.75422,1.1754 -2.75423,1.1754 3,-2.5233 3,-2.5233 1.5,0.2706 1.5,0.2705 0.34655,2.4459 0.34656,2.4458 -1.27912,4.044 -1.27912,4.0439 -0.19324,2.5 -0.19324,2.5 -1.57317,3.75 -1.57317,3.75 h -1.66765 -1.66766 z m 60.29785,-0.5 0.72178,-2.25 0.82175,-3.5 0.82176,-3.5 0.0239,-4.1767 0.0239,-4.1767 1.75,-0.4573 1.75,-0.4573 -2.75,-0.116 L 884,1219 v -0.8089 -0.8088 l 1.41941,-1.9412 1.41941,-1.9411 2.5312,2.3779 2.5312,2.3779 3.62616,-2.1395 3.62616,-2.1394 0.89606,0.5538 0.89605,0.5537 1.13157,4.2024 1.13158,4.2023 -1.17433,5.2475 -1.17432,5.2474 0.58168,1.8327 0.58169,1.8328 -2.51025,1.3434 -2.51026,1.3434 -0.66968,-0.6696 -0.66968,-0.6697 1.15348,-2.2485 1.15347,-2.2485 -0.0347,-3.5 -0.0347,-3.5 0.66274,-4.3367 0.66274,-4.3367 -0.86331,-0.8411 -0.8633,-0.8412 -3.11807,1.3241 -3.11807,1.3241 -1.63193,7.2264 -1.63193,7.2264 v 1.6774 1.6773 l -1.2,1.2 -1.2,1.2 h -1.36739 -1.36739 z m 44.54241,0.6719 1.62941,-1.9219 1.76721,-3.4839 1.76721,-3.4838 0.10338,-5.8507 0.10338,-5.8506 -2.39166,-1.9405 -2.39167,-1.9405 0.65803,-0.658 0.65803,-0.6581 2.73364,2.023 2.73363,2.023 1.2516,2.5495 1.2516,2.5496 -1.98236,6.4181 -1.98235,6.4181 -2.26925,2.0436 -2.26924,2.0437 -1.5,0.8206 -1.5,0.8207 z m 9.4133,0.6472 -0.57533,-0.9309 0.91847,-0.5676 0.91846,-0.5677 2.16256,-7.1197 2.16255,-7.1197 -0.31471,-3.6318 -0.31471,-3.6317 2.75,-0.3164 2.75,-0.3164 v 1.3664 1.3664 l -0.86976,0.95 -0.86977,0.95 -0.58929,3.8851 -0.5893,3.8852 1.56455,-1.8852 1.56455,-1.8851 -1.51211,2.5723 -1.5121,2.5723 -1.26847,4.4277 -1.26847,4.4277 -0.94736,1.25 -0.94736,1.25 h -1.31854 -1.31854 z M 1013,1238 l -1.0704,-2 h 1.5073 1.5072 l 1.5816,-5.75 1.5815,-5.75 0.9511,-2.3073 0.951,-2.3073 -0.5857,-2.3336 -0.5857,-2.3336 1.1249,-0.6952 1.1248,-0.6952 1.3442,1.1156 1.3443,1.1156 -0.9714,3.7205 -0.9715,3.7205 -0.7486,4.5 -0.7486,4.5 -1.617,3.75 -1.6169,3.75 h -1.5159 -1.5158 z m 68.3785,-0.4634 2.283,-2.4634 1.1692,-3.9026 1.1693,-3.9026 v -4.4992 -4.4991 l -1.9987,-2.5409 -1.9986,-2.5409 2.0228,0.529 2.0227,0.529 1.9759,2.5119 1.9759,2.5119 v 2.1837 2.1836 l -1.5761,5.3074 -1.5762,5.3074 -3.1467,2.8741 -3.1467,2.8741 h -0.7294 -0.7294 z m 34.2402,-1.1003 2.8813,-3.7746 v -8.0429 -8.0428 l -2.3385,-1.1743 -2.3384,-1.1743 1.0135,-0.6264 1.0135,-0.6264 2.4361,1.11 2.4361,1.1099 1.6501,3.4602 1.6501,3.4602 -1.5616,5.3717 -1.5616,5.3718 -2.0272,2.5771 -2.0272,2.5771 -2.0538,1.0992 -2.0538,1.0992 z m 8.3988,3.3137 0.017,-0.25 2.9651,-10 2.9651,-10 0.017,-0.857 0.017,-0.857 -1.5,0.5756 -1.5,0.5756 v -0.8136 -0.8136 l 1.9628,-1.7763 1.9627,-1.7763 1.6491,0.6328 1.649,0.6328 -0.6588,3.2385 -0.6588,3.2385 -0.2951,3.5 -0.2951,3.5 -2.2298,5.75 -2.2297,5.75 H 1125.9282 1124 Z M 691.5,1235 l 0.61803,-1 H 692.55902 693 v 1 1 h -1.05902 -1.05901 z m -208.86163,-1.5 0.57561,-1.5 h 1.01545 1.01546 l -1.24489,1.5 -1.24489,1.5 h -0.34617 -0.34617 z M 583.5,1233 l 1.80998,-2 h 0.5 0.5 l -1.80998,2 -1.80998,2 h -0.5 -0.5 z m 59.06429,0.7069 0.68279,-1.7932 0.55979,0.5598 0.5598,0.5598 -1.24258,1.2334 -1.24258,1.2333 z M 908.79642,1230 l 1.99211,-3.5 0.69326,-4.2478 0.69326,-4.2478 -1.62477,-0.6235 -1.62477,-0.6235 -2.10826,1.8713 -2.10827,1.8713 1.06808,-2.0396 1.06808,-2.0396 2.54334,-1.3611 2.54334,-1.3612 1.53409,1.2732 1.53409,1.2732 -0.006,1.6275 -0.006,1.6276 -1.05615,3.8033 -1.05614,3.8033 -3.03612,3.1967 -3.03613,3.1967 z m -402.28514,-4.3769 1.71874,-2.6231 h 0.42017 0.42018 l -1.04056,1.9443 -1.04056,1.9443 -1.09835,0.6788 -1.09835,0.6788 z m -27.13982,-2.7007 2.64118,-2.0775 1.06307,-1.9864 1.06308,-1.9863 -1.2119,-1.4603 -1.21189,-1.4602 0.54512,-0.5452 0.54512,-0.5451 2.09738,1.3099 2.09738,1.3098 v 1.7532 1.7532 l -4.15004,3.0062 -4.15004,3.0063 h -0.98482 -0.98482 z m 161.05734,-1.2905 3.5712,-3.3681 v -1.7485 -1.7485 l -2.73098,0.5221 -2.73099,0.5221 1.92212,-1.4055 1.92211,-1.4055 H 643 h 0.61774 l 1.81368,1.3262 1.81368,1.3262 -0.69388,2.1862 -0.69388,2.1862 -3.6608,2.4876 -3.66081,2.4876 h -0.83907 -0.83906 z m 126.727,1.2256 2.65579,-2.3575 1.09691,-2.1893 1.09691,-2.1893 -1.00271,-0.6197 L 770,1214.882 v -0.941 -0.941 l 0.75,0.032 0.75,0.032 1.91817,1.4514 1.91816,1.4514 -1.0369,2.2668 -1.0369,2.2668 -4.38127,2.3575 -4.38126,2.3575 z M 622.64771,1217.9562 625.26577,1214 H 627.13289 629 v 0.9292 0.9291 l -4.48518,3.027 -4.48518,3.027 z m 512.37919,3.2637 0.027,-0.7199 2.8296,-3.4121 2.8296,-3.412 1.6435,0.6307 1.6435,0.6306 v 1.0314 1.0314 h -0.8605 -0.8604 l -3.6396,2.4699 -3.6395,2.4698 z M 463.22103,1217.35 465.19755,1214 H 467.09878 469 l -0.008,1.25 -0.008,1.25 -3.8695,2.1 -3.86949,2.0999 z M 949,1220.1871 v -0.8129 l 2.9403,-2.817 2.9403,-2.817 1.67233,0.6417 1.67232,0.6418 -1.23507,1.4881 -1.23507,1.4882 H 954.5 953.24489 L 952,1219.5 950.75511,1221 H 949.87756 949 Z m -139,-0.5647 v -0.3775 l 1.75,-1.3725 1.75,-1.3724 -1.37244,1.75 -1.37245,1.75 H 810.37756 810 Z m 254.2125,-2.8099 L 1063,1215.6 v -0.8696 -0.8695 l 2.25,0.3195 2.25,0.3196 v 1.4167 1.4166 l -1.0375,0.3459 -1.0375,0.3458 z M 979,1215.4416 v -0.3712 l 2,-1.0704 2,-1.0704 v 0.9186 0.9185 l -2,0.523 -2,0.5231 z m -611.93595,-7.34 2.13788,-4.1016 h 1.95574 1.95574 l -1.3751,1.9632 -1.3751,1.9633 -2.71852,2.1383 -2.71852,2.1384 z M 715,1208.5 v -2.6466 l 1.75,0.337 1.75,0.337 v 1.9726 1.9726 l -1.75,0.337 -1.75,0.337 z m 296.38,1.0479 -0.5572,-1.4521 0.6476,-1.0479 0.6476,-1.0479 h 1.4724 1.4724 l 0.6143,1.6009 0.6143,1.6009 -1.3957,0.8838 -1.3957,0.8838 -0.7814,0.015 -0.7814,0.015 z M 715,1076.3898 v -1.5607 l 5.99857,-21.1646 5.99857,-21.1645 3.00007,-13.658 3.00008,-13.658 0.98402,-9.34199 0.98403,-9.34201 0.0118,-5.5 0.0118,-5.5 -1.04404,-3.75946 -1.04404,-3.75945 -2.31541,-1.51711 -2.3154,-1.51712 -2.56962,0.97697 -2.56963,0.97697 -5.57594,5.0496 -5.57594,5.0496 h -1.05577 -1.05576 l 4.81635,-6.16003 4.81635,-6.16003 8.07593,-9.08997 8.07593,-9.08997 4.12206,-2.84996 4.12206,-2.84996 3.80201,-1.35614 3.80201,-1.35615 4.28984,-0.0439 4.28984,-0.0439 3.96058,2.02054 3.96058,2.02054 2.68872,4.22946 2.68873,4.22946 1.68769,6.03419 1.68769,6.03419 0.62245,6.96581 0.62245,6.96581 -0.84374,8.5 -0.84374,8.5 0.26906,0.34127 0.26906,0.34128 7.54514,-15.10159 7.54514,-15.10159 4.22941,-6.22809 4.22942,-6.22809 4.05084,-4.41312 4.05084,-4.41312 5,-2.3387 5,-2.33871 4.28212,-0.01 4.28212,-0.01 3.21788,1.34713 3.21788,1.34713 3.84717,4.26331 3.84717,4.2633 1.51896,3.63538 1.51896,3.63538 0.0367,7.00419 0.0367,7.00418 -1.73822,5.94772 -1.73822,5.94772 -2.81573,5.57793 -2.81573,5.57793 -6.03409,7.9743 -6.0341,7.9744 -7.35205,7.5 -7.35205,7.5 -9.46271,7.5996 -9.46271,7.5996 -10,6.6951 -10,6.6952 -13.52334,6.8745 -13.52334,6.8746 -11.47666,4.6858 -11.47666,4.6858 -2.25,0.8702 -2.25,0.8701 z m 60.26666,-31.6375 6.76666,-4.9663 6.32835,-6.9338 6.32835,-6.9338 4.23564,-7.403 4.23563,-7.4029 2.41309,-6.9388 2.41308,-6.93885 1.08852,-7.82613 1.08851,-7.82613 -0.67903,-4.52812 -0.67903,-4.52812 -1.32822,-2.56849 -1.32822,-2.56849 -2.32499,-1.05929 -2.325,-1.05928 -2.08192,0.7702 -2.08191,0.7702 -4.1899,4.75996 -4.18989,4.75997 -7.42064,15.08444 -7.42064,15.08443 -0.64678,4 -0.64678,4 -4.38081,17 -4.38081,17 -0.707,2.481 -0.70701,2.481 2.92705,-1.8717 2.92704,-1.8717 z m -170.16902,27.2609 -7.40237,-2.0003 -4.74925,-3.0475 -4.74924,-3.0476 -4.51426,-4.8261 -4.51425,-4.8261 -2.44721,-4.8828 -2.44721,-4.8828 -1.27254,-5.3995 -1.27253,-5.3995 0.0815,-8.6423 0.0815,-8.6422 1.99714,-9.1506 1.99714,-9.15052 3.48135,-7.53492 3.48134,-7.53492 5.20476,-7.52894 5.20475,-7.52894 6.56335,-6.1397 6.56336,-6.13969 7.35022,-4.79828 7.35022,-4.79827 5.70726,-2.14847 5.70726,-2.14846 7.40996,-1.90739 7.40997,-1.9074 8.59003,0.0148 8.59004,0.0148 6.26916,1.47808 6.26915,1.47808 4.73085,2.40299 4.73084,2.40298 4.5,3.99207 4.5,3.99207 3.32439,5.53343 3.3244,5.53343 1.58741,5.82866 1.58741,5.82865 -0.0594,10.5 -0.0594,10.5 -2.08377,8 -2.08378,8 -4.54314,9.0687 -4.54314,9.0687 -6.66169,8.3261 -6.6617,8.3261 -8.06376,6.4099 -8.06376,6.41 -9,4.4394 -9,4.4393 -6,1.6013 -6,1.6014 -10,0.4112 -10,0.4113 z m 29.48246,-5.1938 4.53541,-4.1806 4.01287,-8.4078 4.01287,-8.4078 3.33369,-10.1768 3.3337,-10.1769 2.59677,-12.6048 2.59677,-12.6047 1.61504,-13.88002 1.61504,-13.87998 -1.10963,-9 -1.10964,-9 -1.10077,-3.9212 -1.10077,-3.92119 -2.8288,-2.82881 -2.8288,-2.8288 -1.82693,0.007 -1.82692,0.007 -2.67943,1.7671 -2.67943,1.76711 -3.17152,3.97631 -3.17151,3.9763 -2.3858,4.69059 -2.38579,4.69059 -3.10435,7.80941 -3.10436,7.80941 -3.39131,13.22439 -3.39132,13.22441 -1.51759,11.5768 -1.51759,11.5768 0.008,10.1988 0.008,10.1988 1.03373,6.3708 1.03373,6.3707 1.94533,3.8132 1.94532,3.8131 2.2359,1.5661 2.23589,1.5661 h 1.79984 1.79984 z m 245.52453,5.6659 -5.39537,-1.5187 -4.72449,-2.5714 -4.72449,-2.5714 -3.72185,-3.615 -3.72186,-3.6151 -3.06436,-4.4538 -3.06435,-4.4539 -2.50473,-7.593 -2.50472,-7.593 -8.8e-4,-11.5 -8.8e-4,-11.5 1.80868,-6.5 1.80868,-6.5 3.22874,-7.12189 3.22873,-7.12189 4.27736,-6.37811 4.27736,-6.37811 8.15913,-8 8.15913,-8 8.91259,-5.27506 8.91258,-5.27507 9.52518,-3.09725 9.52519,-3.09726 9.63212,-0.5057 9.63211,-0.5057 5.09942,1.22333 5.09942,1.22333 3.98259,2.88498 3.98259,2.88497 1.53587,2.97005 1.53588,2.97006 v 4.68163 4.68162 l -2.06367,3.3391 -2.06368,3.33909 -4.4987,3.95992 -4.4987,3.95991 -8.68763,4.48337 -8.68762,4.48336 -8,3.19989 -8,3.1999 -11,3.82621 -11,3.8262 -0.34987,2.29092 -0.34987,2.291 1.2103,7.5186 1.21031,7.5186 1.95056,5.221 1.95055,5.221 4.18901,4.3015 4.18901,4.3016 4,1.9416 4,1.9416 7.82014,0.3949 7.82014,0.3949 4.6517,-1.7765 4.65169,-1.7765 4.78531,-4.476 4.78531,-4.4761 2.07441,-3.3565 2.07442,-3.3565 h 0.93876 0.93877 l -2.07178,4.061 -2.07177,4.061 -3.60259,5.689 -3.60258,5.689 -6.2355,8.039 -6.2355,8.039 -4.46564,3.6593 -4.46564,3.6593 -3.46858,2.0465 -3.46858,2.0465 -4.92625,1.5439 -4.92624,1.5438 -9,0.4634 -9,0.4634 z m 20.69531,-81.82128 5.29994,-3.14713 3.88368,-3.73178 3.88367,-3.73178 3.17094,-4.60881 3.17095,-4.60881 1.98015,-5.63388 1.98014,-5.63388 0.1653,-5.62193 0.16529,-5.62193 -1.39059,-2.60901 -1.3906,-2.60901 -1.24186,-0.47654 -1.24185,-0.47654 -4.15102,1.05364 -4.15101,1.05364 -3.5979,4.11986 -3.5979,4.11987 -4.26493,9 -4.26492,9 -1.57638,6.5 -1.57638,6.5 -0.67857,5.86539 -0.67858,5.86539 2.40125,-0.70982 2.40124,-0.70982 z m -391.34952,80.92938 -3.04957,-1.3283 -2.61449,-3.1072 -2.61449,-3.1071 -1.2027,-3.6442 -1.2027,-3.6442 0.51005,-12.1312 0.51005,-12.1312 18.19153,-63 18.19153,-63 1.55021,-5.23483 1.55022,-5.23484 -1.18456,-1.4273 -1.18456,-1.42731 -4.95047,-1.1876 L 527,890.80052 v -0.77894 -0.77894 l 2.75,-1.10419 2.75,-1.10419 27.5,-8.1309 27.5,-8.1309 1.89618,-0.54109 1.89618,-0.54109 -0.54686,2.40486 -0.54685,2.40486 -15.63742,54 -15.63741,54 -6.55286,22.5 -6.55285,22.5 -0.53445,6.6246 -0.53445,6.6246 2.12539,2.1254 L 549,1045 h 2.54284 2.54284 l 4.81087,-4.5 4.81086,-4.5 h 1.13573 1.13574 l -9.5343,11.4386 -9.53429,11.4386 -6.79928,5.0405 -6.79927,5.0405 -4.40587,1.9989 -4.40587,1.999 -6,-0.017 -6,-0.017 z m 433.40311,-216.16312 -4.64647,-1.43042 -3.10353,-3.53473 L 932,846.93041 v -3.51487 -3.51486 l 1.53588,-2.97006 1.53587,-2.97005 4.11283,-2.97932 4.11283,-2.97931 1.35129,1.12147 1.3513,1.12148 v 2.02262 2.02263 l 3.5043,7.28573 3.50429,7.28573 2.63056,2.0692 2.63057,2.0692 h 3.28841 3.28842 l 2.95623,-2.48751 2.95624,-2.4875 2.56495,-6.91987 2.56495,-6.91986 8.49278,-29.34263 8.49279,-29.34263 7.10974,-24.5 7.10977,-24.5 1.953,-6.35534 1.953,-6.35533 v -0.35968 -0.35968 l -10.1688,-0.28499 -10.16877,-0.28498 -0.41455,-1.25 -0.41455,-1.25 h 10.94087 10.941 l 3.6521,-8.81112 3.6522,-8.81112 5.1765,-7.93888 5.1766,-7.93888 7.0637,-7.0304 7.0637,-7.0304 6.0464,-3.16974 6.0465,-3.16975 4.7053,-1.05449 4.7054,-1.05449 4.1587,0.93441 4.1588,0.93441 2.9486,2.94858 2.9486,2.94858 0.5222,4.63338 0.5223,4.63338 -1.6805,4.40009 -1.6804,4.40009 -1.4596,0.56012 -1.4597,0.56013 -2.7413,-1.04281 -2.7413,-1.04281 -15.5,-0.17914 -15.5,-0.17914 -4.572,2.11504 -4.572,2.11504 -1.7718,3.73381 -1.7718,3.73381 1.1261,4.47215 1.1261,4.47215 2.5762,4.179 2.5763,4.179 1.5826,1.25 1.5826,1.25 h 16.8922 16.8922 l -0.4147,1.25 -0.4147,1.25 -10.6118,0.28326 -10.6118,0.28325 -0.5093,1.71675 -0.5092,1.71674 -11.4916,40.14642 -11.4915,40.14642 -4.3861,9.38587 -4.386,9.38586 -3.5015,5.46772 -3.5015,5.46771 -4.3007,5 -4.3007,5 -5.6178,4.8091 -5.6178,4.8091 -8,3.93096 -8,3.93096 -5.9601,1.50994 -5.9601,1.50994 -6.0399,-0.0697 -6.0399,-0.0697 z m -404.64521,-38.09947 -2.29168,-0.48084 -3.4061,-3.4061 -3.4061,-3.4061 -1.04664,-3.76888 -1.04665,-3.76889 0.0161,-5.5 0.0161,-5.5 1.88127,-8.5 1.88127,-8.5 4.69662,-16 4.69662,-16 0.52989,-5.64555 0.52989,-5.64556 -2.12942,-1.13963 -2.12942,-1.13963 -2.25,1.15198 -2.25,1.15197 -4.25,4.09142 -4.25,4.09142 v -1.27986 -1.27985 l 7.08511,-8.32077 7.08512,-8.32076 5.16488,-4.20904 5.16489,-4.20905 4,-2.09479 4,-2.09478 6.17325,-0.0538 6.17325,-0.0538 2.82675,2.06453 2.82675,2.06454 1.91667,3.86193 1.91666,3.86194 -0.003,7.07353 -0.003,7.07353 -1.28975,5.5 -1.28974,5.5 -5.37355,18.82164 L 565,782.14328 v 3.9941 3.9941 l 1.03518,1.93426 1.03519,1.93426 h 2.38822 2.38822 l 4.58525,-3.5 4.58525,-3.5 h 0.50801 0.508 l -7.04892,8.25 -7.04892,8.25 -5.40033,4.62816 -5.40033,4.62816 -4.31741,2.07911 -4.31741,2.07911 -4,0.44855 -4,0.44855 z m 119.7958,-1.51648 -4.49589,-2.31433 -2.1319,-3.85 -2.13189,-3.85 -0.62079,-4.5291 -0.62078,-4.52911 1.02351,-6.62089 1.02351,-6.6209 7.03582,-21.28479 7.03582,-21.28479 -0.31077,-3.21521 L 663.5,734.5 l -2.84865,-0.32594 -2.84865,-0.32594 -4.26173,4.44778 -4.26172,4.44777 -5.09283,10.37817 -5.09283,10.37816 -9.95643,25.5 -9.95643,25.5 -19.2058,0.272 -19.20579,0.27199 0.71412,-1.77199 0.71412,-1.772 10.44029,-36.47671 10.44028,-36.47672 0.12639,-3.36206 0.12639,-3.36207 -1.41536,-0.89591 -1.41537,-0.8959 -2.60921,-0.0153 -2.60921,-0.0153 -4.68423,4.12323 -4.68423,4.12322 -0.48517,-0.48517 -0.48518,-0.48517 11.42006,-11.92005 11.42006,-11.92004 5.18002,-2.81932 5.18002,-2.81932 5.67853,-0.46188 5.67854,-0.46188 3.20966,2.02396 3.20967,2.02396 2.04033,3.99939 2.04034,3.99939 v 7.84894 7.84893 l -5.96084,21.44091 -5.96083,21.4409 -1.03917,3.4934 L 626,784.4868 v 1.4566 1.4566 l 0.92528,-0.95 0.92528,-0.95 3.96984,-10.60638 3.96983,-10.60638 6.0015,-12.39362 6.0015,-12.39362 4.93248,-7.5 4.93248,-7.5 5.2243,-5.69863 5.2243,-5.69863 6.10633,-3.05137 6.10632,-3.05137 4.59028,0.0419 4.59028,0.0419 3.16985,1.70809 3.16984,1.70808 1.96847,2.51574 1.96847,2.51575 1.10611,3.98425 1.10611,3.98426 0.006,4.63813 0.006,4.63814 -2.555,8.86186 -2.55501,8.86187 -4.50875,14 -4.50874,14 -0.84153,4.43404 -0.84152,4.43404 0.96783,2.54561 0.96784,2.54561 1.18744,0.75504 1.18744,0.75503 1.65539,0.0153 L 693.81077,794 698,790.5 702.18923,787 h 0.92492 0.92492 l -7.54839,8.94678 -7.5484,8.94678 -3.95556,3.38581 -3.95556,3.38581 -4.90929,2.67197 -4.90929,2.67197 -4.35629,0.55977 -4.35629,0.55976 z m 66.5537,0.69355 -3.94217,-1.40434 -2.55783,-1.89306 L 715.5,811.31742 712.89554,807.40871 710.29109,803.5 708.64554,798.57186 707,793.64372 v -6.42751 -6.42752 l 1.58635,-6.14435 1.58636,-6.14434 3.96412,-7.63284 3.96413,-7.63284 6.76447,-8.36716 6.76448,-8.36716 8.13953,-7.02353 8.13954,-7.02352 7.99114,-4.83086 7.99114,-4.83085 6.80437,-2.51214 6.80437,-2.51214 7.93839,-0.63348 7.9384,-0.63348 4.76782,-16.5 4.76783,-16.5 -0.34095,-1.03141 -0.34096,-1.03141 -5.113,-1.31042 -5.11301,-1.31042 -0.53765,-0.86995 -0.53766,-0.86994 5.2854,-1.47504 5.28539,-1.47504 21.35693,-6.12292 21.35692,-6.12293 0.45906,0.45906 0.45906,0.45905 -17.11302,59.35069 -17.11301,59.35068 -1.47349,5.22451 -1.4735,5.22452 -0.19222,4.41667 -0.19223,4.41668 1.3352,1.60881 1.33519,1.60881 h 2.28294 2.28294 L 819,790.5 823.18923,787 h 1.0576 1.05761 l -5.8065,6.25 -5.80649,6.25 -4.90164,5.24043 -4.90163,5.24043 -4.23732,2.91535 -4.23732,2.91535 -4.366,1.17564 -4.366,1.17564 -3.557,-0.6673 -3.55701,-0.6673 -2.69794,-1.9211 -2.69793,-1.9211 -2.2255,-4.59726 -2.2255,-4.59727 0.56289,-9.64575 0.56289,-9.64576 5.91445,-20 5.91446,-20 0.68138,-2.75 0.68137,-2.75 h -0.90447 -0.90448 l -5.53783,12.25 -5.53784,12.25 -6.68342,14 -6.68342,14 -4.04932,6.94158 -4.04932,6.94159 -4.094,4.45936 -4.094,4.45937 -4,1.82709 -4,1.82709 -2.5,-0.0219 -2.5,-0.0219 z m 29.94453,-30.64408 3.57194,-3.13621 9.87105,-20.11379 9.87105,-20.1138 5.60697,-11.9045 5.60698,-11.9045 -1.76517,-1.95191 -1.76517,-1.95191 -3.87951,-1.97999 -3.87952,-1.97998 -4.3426,1.65845 -4.34261,1.65846 -4.59394,5.10957 -4.59394,5.10957 -4.38719,9.06837 -4.38718,9.06837 -2.62858,9 -2.62858,9 -0.55584,10.13343 -0.55584,10.13344 0.63917,2.54664 0.63916,2.54664 1.56993,1.56992 1.56993,1.56993 h 0.89377 0.89378 z M 901,816.59397 l -5.5,-1.23842 -3.72884,-1.6179 -3.72883,-1.61791 -5.12097,-4.79007 -5.12097,-4.79006 -2.32228,-4.58281 -2.32228,-4.58281 -1.1443,-6.31039 -1.14429,-6.31039 0.64405,-6.6266 0.64405,-6.62661 1.97549,-7.45493 1.97549,-7.45494 3.50642,-6.67273 3.50642,-6.67273 5.31429,-6.44276 5.31429,-6.44275 6.37613,-4.82363 6.37613,-4.82363 7,-3.32918 7,-3.32918 6.45492,-1.63709 6.45491,-1.63708 9.04509,0.45885 9.04508,0.45885 5.74666,2.22206 5.74666,2.22207 5.34816,4.88792 5.34816,4.88791 2.84292,6.29149 2.84291,6.29148 0.42535,8.5569 0.42535,8.5569 -1.58076,7.64377 -1.58077,7.64378 -3.01328,6.64566 -3.01329,6.64566 -4.3982,6.15366 -4.3982,6.15367 -5.37084,5.04755 -5.37083,5.04755 -4.5,3.06793 -4.5,3.06792 -5.34589,2.69996 -5.34588,2.69996 -7.56408,1.93457 -7.56408,1.93456 -5.09003,-0.0838 -5.09004,-0.0838 z m 21.47138,-4.70298 3.54097,-3.10902 3.37955,-7.14098 3.37955,-7.14099 2.51339,-8 2.51338,-8 2.53251,-11.5 2.5325,-11.5 0.98215,-11.28092 0.98215,-11.28091 -0.9942,-7.17429 -0.9942,-7.1743 -1.54016,-3.04479 -1.54015,-3.04479 -1.5344,-1.75 -1.5344,-1.75 h -1.34213 -1.34213 l -4.172,3.75 -4.172,3.75 -4.78576,10 -4.78576,10 -2.54899,9.5 -2.54899,9.5 -1.64635,9 -1.64635,9 -0.0976,13.5 -0.0976,13.5 1.86815,5.37034 1.86814,5.37033 1.87967,1.87967 L 915,815 h 1.9652 1.96521 z m -448.16207,3.70592 -3.1907,-1.45049 -2.91293,-4.02119 -2.91294,-4.02119 -1.60524,-5.80202 -1.60524,-5.80202 -1.04113,-8.47377 -1.04113,-8.47376 0.0153,-5.02624 0.0153,-5.02623 0.73468,-1.12437 0.73469,-1.12437 3.5,-0.74767 3.5,-0.74766 3.79149,-1.91946 3.79149,-1.91945 3.90341,-3.90341 3.9034,-3.9034 1.54969,-5.21836 1.54969,-5.21837 -1.03385,-3.83941 -1.03385,-3.83942 -2.42272,-1.58742 -2.42271,-1.58743 -3.60043,1.18825 -3.60043,1.18825 -4.45689,5.65185 -4.45689,5.65185 -4.88492,9.5 -4.88493,9.5 -4.19662,10 -4.19661,10 -5.81496,15.5 -5.81496,15.5 -17.80058,0.27396 -17.80058,0.27395 -1.22885,-0.47155 -1.22884,-0.47155 0.98627,-3.30241 0.98627,-3.3024 19.06245,-66 19.06245,-66 0.1465,-1.89583 0.14651,-1.89583 -4.67928,-1.60417 -4.67929,-1.60417 -0.66651,-0.67913 -0.66651,-0.67912 6.8458,-2.0132 6.84579,-2.0132 19.43066,-5.54369 19.43065,-5.54368 0.37367,0.37367 0.37367,0.37367 -4.0052,13.36234 -4.00521,13.36234 -14.69661,50.5 -14.69661,50.5 -0.40008,3.5 -0.40009,3.5 0.95577,-1.5 0.95577,-1.5 5.10305,-12.79457 5.10306,-12.79457 3.88011,-7.70543 3.88012,-7.70543 6.9341,-10.5 6.93411,-10.5 5.92453,-5.41384 5.92453,-5.41384 5.34343,-2.45224 5.34344,-2.45224 5.34637,0.44336 5.34638,0.44336 4.13891,2.73901 4.13891,2.739 1.42128,3.4016 1.42128,3.40159 v 5.07196 5.07196 l -1.99077,3.90223 -1.99077,3.90223 -3.25923,2.44371 -3.25923,2.44371 -4.12837,2.07249 -4.12837,2.0725 -6.62163,1.6633 -6.62163,1.6633 v 2.24743 2.24744 l 1.49733,8.58635 1.49734,8.58636 2.1618,5.79463 2.1618,5.79464 2.42467,3.67582 2.42466,3.67583 3.31733,1.57417 3.31733,1.57418 h 3.06407 3.06408 l 3.28479,-2.85335 3.2848,-2.85335 2.33974,-1.22986 2.33974,-1.22986 -7.59588,9.00306 -7.59588,9.00306 -6.20189,4.66205 -6.20189,4.66204 -2.99678,1.5497 -2.99679,1.5497 -6.04518,0.39211 -6.04519,0.3921 z m 91.14111,-117.00351 -3.04957,-1.32831 -2.61449,-3.10714 -2.61449,-3.10714 -1.20473,-3.65037 -1.20473,-3.65038 0.60203,-4.39226 0.60202,-4.39227 1.54466,-2.98703 1.54465,-2.98703 3.72212,-2.44717 3.72211,-2.44717 4.87961,-1.08184 4.8796,-1.08185 5.26423,1.53035 5.26424,1.53036 3.05161,3.47559 3.05161,3.47559 1.04897,3.77734 1.04898,3.77733 0.006,2.78212 0.006,2.78212 -1.53814,3.68128 -1.53814,3.68128 -1.71186,1.89301 -1.71186,1.89301 -3.71016,1.89359 -3.71016,1.89359 -6.28984,-0.0391 -6.28984,-0.0391 z m -5.6932,-137.0308 -7.74278,-1.37191 -5.30472,-1.66854 -5.30472,-1.66854 -5.18799,-2.67681 -5.18799,-2.6768 -5.26451,-3.89515 -5.26451,-3.89514 -5.08575,-5.80007 -5.08575,-5.80007 -3.18165,-6.46283 -3.18164,-6.46283 -2.12716,-7.84196 -2.12716,-7.84195 -0.0476,-12.5 -0.0476,-12.5 1.26266,-6 1.26266,-6 2.3909,-8 2.39091,-8 4.5223,-8.8502 4.5223,-8.85021 4.6688,-6.54274 4.66881,-6.54274 6.53872,-6.93139 6.53872,-6.93138 8.05875,-6.00493 8.05875,-6.00493 8.29799,-4.52788 8.29799,-4.52789 9.20201,-3.28713 9.20201,-3.28714 9,-1.79519 9,-1.79518 14.5,0.0431 14.5,0.0431 7.5,1.66517 7.5,1.66517 8,3.83873 8,3.83872 5.27968,3.99711 5.27968,3.9971 3.53149,4.12575 3.53149,4.12575 3.47428,5.76957 3.47428,5.76958 2.47304,7.82851 2.47305,7.8285 0.7426,8.6715 0.74261,8.67149 -0.73789,8 -0.73789,8 0.27656,0.86931 0.27656,0.86932 4.3391,-5.74709 4.3391,-5.7471 9.91027,-9.81373 9.91027,-9.81373 6.12058,-3.05849 L 738.31944,427 h 7.10588 7.10588 l 3.4844,1.8541 3.4844,1.8541 2.22256,3.8959 2.22256,3.8959 1.15627,5.5 1.15627,5.5 -1.21217,8 -1.21218,8 -9.41665,28.68017 -9.41666,28.68016 0.0153,1.81984 0.0153,1.81983 0.89671,1.41667 0.89671,1.41666 h 3.27538 3.27538 l 4.2131,-4.65352 4.21311,-4.65353 4.99155,-9.76314 4.99155,-9.76314 8.08354,-20.5 8.08355,-20.5 5.80127,-15 5.80126,-15 22.40352,-0.26961 22.40351,-0.26962 0.66285,0.76962 0.66285,0.76961 -8.35151,29 -8.35151,29 -4.49173,16.4615 L 820,521.423 v 3.83395 l 0,3.83396 2.45455,2.45454 2.45454,2.45455 h 1.1112 1.11119 l 2.18426,-1.14195 2.18426,-1.14195 4.32601,-3.94871 4.32601,-3.94871 0.52696,0.52697 0.52697,0.52696 -7.08075,8.47749 -7.08074,8.47748 -6.02919,5.83621 -6.02918,5.83621 -6.0201,3.65675 -6.02009,3.65675 -5.03108,1.20693 -5.03108,1.20694 -4.4809,-1.25457 -4.4809,-1.25458 -3.96006,-4.49886 -3.96006,-4.49887 -1.11913,-4.11024 -1.11913,-4.11025 0.54682,-10.5 0.54681,-10.5 5.63087,-19.5 5.63088,-19.5 2.44053,-7.80162 L 791,467.89676 v -2.0074 -2.00739 l -0.93445,0.57752 -0.93445,0.57752 -3.13586,8.2315 -3.13586,8.23149 -2.53296,6.5 -2.53297,6.5 -7.76,16.11354 -7.76001,16.11355 -4.4626,6.88645 -4.46259,6.88646 -5.1012,6.11856 -5.10119,6.11855 -6.08422,4.06289 -6.08423,4.06289 -5.48883,1.13948 -5.48882,1.13948 -5.37226,-1.56176 -5.37227,-1.56176 -3.10139,-3.17218 -3.1014,-3.17219 -1.71111,-5.08698 -1.71111,-5.08698 0.11629,-7.0909 0.11628,-7.0909 1.63394,-6.4091 1.63394,-6.4091 6.0458,-19.5 6.04581,-19.5 1.88886,-6.93237 L 719,463.63526 v -3.16264 -3.16264 L 717.17126,455.65499 715.34252,454 h -2.02122 -2.02122 l -3.90004,2.87921 -3.90004,2.87921 -3.8055,3.96979 -3.8055,3.96979 -1.52156,5.901 -1.52155,5.901 -4.43066,9.40017 -4.43065,9.40017 -5.70503,8.59983 -5.70502,8.59983 -9.63324,9.58314 -9.63324,9.58313 -9.18731,6.1453 -9.18731,6.14529 -7.21671,3.46001 -7.21672,3.46001 -7.77295,2.52739 -7.77295,2.52738 -8.22705,1.56636 -8.22705,1.56636 -10.5,0.43507 -10.5,0.43507 z m 36.97359,-5.67433 4.34156,-2.10172 5.47216,-5.00124 5.47216,-5.00125 5.49506,-8.25856 5.49505,-8.25856 3.39515,-7.38347 3.39515,-7.38347 3.12899,-8.90771 3.129,-8.90772 1.99003,-7.59228 1.99004,-7.59229 2.17435,-12 2.17435,-12 -0.0126,-19.5 -0.0126,-19.5 -1.68748,-7.5 -1.68747,-7.5 -3.51983,-7.19598 -3.51983,-7.19599 -4.16898,-3.56849 -4.16899,-3.5685 -4.05308,-1.09672 -4.05309,-1.09672 -5.73571,0.51508 -5.73571,0.51507 -4.46687,2.16238 -4.46686,2.16237 -5.03259,4.007 -5.03258,4.00701 -6.08234,9.09318 -6.08233,9.09319 -2.57897,5.08356 -2.57898,5.08356 -3.83296,10.73763 -3.83296,10.73763 -2.46372,9.76237 -2.46372,9.76237 -1.59997,9.5 -1.59997,9.5 -0.59736,14.61492 -0.59735,14.61493 1.24012,9.85236 1.24012,9.85236 1.90963,6.18265 1.90963,6.18265 3.92633,5.87973 3.92634,5.87974 4.14076,2.32724 4.14077,2.32724 2.67362,0.86651 2.67363,0.86651 5.94463,-0.47843 5.94462,-0.47843 z M 844.25,559.18045 842,558.8609 v -0.93266 -0.93267 l 12.06051,-42.24778 12.06052,-42.24779 1.44673,-6.18705 1.44673,-6.18705 -1.17869,-2.58693 -1.17868,-2.58692 -2.25639,-0.56632 -2.25639,-0.56632 -2.28931,0.7266 -2.28931,0.7266 -5.94729,5.61369 -5.94728,5.6137 1.83452,-3.17296 1.83453,-3.17296 8.5799,-9.59212 8.5799,-9.59212 5.5,-4.51541 5.5,-4.51541 5.22856,-2.57637 5.22855,-2.57637 7.9712,0.36199 7.9712,0.36199 3.57765,3.4676 3.57764,3.46759 1.4726,4.95878 1.4726,4.95877 -0.008,5.0685 -0.008,5.0685 -0.99833,6.15093 -0.99833,6.15093 -5.40722,18.84907 -5.40723,18.84907 -2.58689,8.86187 L 896,522.22373 v 1.44715 1.44715 l 0.93043,-0.57504 0.93044,-0.57503 4.00396,-10.23398 4.00397,-10.23398 7.54863,-18.24126 7.54863,-18.24127 3.62723,-7.25873 3.62724,-7.25874 3.56361,-6 3.56361,-6 3.0116,-3.87808 3.0116,-3.87809 3.96456,-2.87191 L 949.30008,427 h 4.27323 4.27324 l 3.00997,2.53273 3.00998,2.53272 1.28444,3.71728 1.28443,3.71727 -0.0599,8.5 -0.0599,8.5 -1.19632,4.25 -1.19632,4.25 h -5.89608 -5.89608 l -7.2817,1.53175 -7.2817,1.53176 -4.04769,2.3721 -4.04769,2.37211 -5.31846,5.62348 -5.31845,5.62348 -4.92649,10.44416 -4.9265,10.44416 -10.58911,26.7785 -10.58912,26.7785 -0.33812,0.35287 -0.33812,0.35287 -20.3138,0.14713 L 846.5,559.5 Z M 733,268.3106 v -2.6894 l -1.95062,-12.5606 -1.95062,-12.5606 -2.52307,-19 -2.52306,-19 -0.27631,-3.42299 -0.27632,-3.42299 -1.06762,-0.34955 -1.06762,-0.34955 -8.82425,6.77254 -8.82425,6.77254 -7.10813,5.16236 -7.10813,5.16237 -0.37322,-0.36892 -0.37322,-0.36891 6.95534,-8.79345 6.95533,-8.79345 5.16789,-6.89913 L 713,186.70174 v -1.21278 -1.21277 l -6.75,-0.65835 -6.75,-0.65836 -7.5,-1.01404 -7.5,-1.01404 -23.97951,-3.02854 -23.9795,-3.02854 -0.43716,-0.43716 -0.43716,-0.43716 0.41666,-0.31448 0.41667,-0.31449 16.5,-2.27864 16.5,-2.27865 13.07376,-1.8404 13.07375,-1.84041 8.67625,-0.70398 L 713,163.72496 v -1.2337 -1.23371 L 701,145.5 689,129.74245 v -0.46943 -0.46942 l 2.9039,1.8482 2.9039,1.8482 10.14649,7.95528 10.14649,7.95528 3.37387,2.40054 3.37388,2.40055 1.07573,-0.66484 L 724,151.88197 v -3.8292 -3.8292 l 2.48938,-17.86179 2.48938,-17.86178 1.48523,-9.55192 1.48523,-9.55192 0.67848,-7.300213 0.67848,-7.300212 0.79225,1.415673 0.79225,1.415672 2.08514,14.43646 2.08514,14.43646 2.46519,21.5 2.4652,21.5 0.004,1.75 L 744,153 h 1.41771 l 1.4177,0 14.8323,-11.46606 14.83229,-11.46606 0.80654,-0.0339 0.80653,-0.0339 -1.76281,2.9842 -1.7628,2.98419 -9.79373,12.59813 L 755,161.16466 v 1.27014 1.27015 l 8.35157,0.64195 8.35157,0.64195 28.89843,4.08151 28.89843,4.08151 0.89464,0.86871 0.89465,0.86871 -2.39465,0.48452 -2.39464,0.48452 -35,4.19662 -35,4.19663 -1.24135,0.65912 -1.24135,0.65912 7.74698,9.96509 7.74697,9.96509 4.81155,6.34949 4.81155,6.3495 -0.42356,0.42356 -0.42356,0.42356 -9.39362,-7.21676 -9.39361,-7.21677 -6.30296,-4.80629 -6.30296,-4.80629 -1.28236,0 h -1.28237 l -2.2249,19.25 -2.2249,19.25 -1.44635,11 -1.44635,11 -1.11567,7.75 -1.11568,7.75 H 733.87775 733 Z"
       id="path1" />
  </g>
</svg>
